<svg xmlns="http://www.w3.org/2000/svg" viewBox="0 0 320 384"><defs><style>.cls-1{fill:#8dc63f;}</style></defs><title>arrow-double</title><g id="Слой_2" data-name="Слой 2"><g id="Layer"><path class="cls-1" d="M315.31,300.69a16,16,0,0,0-22.62,0L264,329.38V16a16,16,0,0,0-32,0V329.38l-28.69-28.69a16,16,0,0,0-22.62,22.62l56,56a16,16,0,0,0,22.62,0l56-56a16,16,0,0,0,0-22.62Z"/><path class="cls-1" d="M116.69,300.69,88,329.38V16a16,16,0,1,0-32,0V329.38L27.31,300.69A16,16,0,0,0,4.69,323.31l56,56a16,16,0,0,0,22.62,0l56-56a16,16,0,0,0-22.62-22.62Z"/></g></g></svg>