<svg xmlns="http://www.w3.org/2000/svg" viewBox="0 0 384 512"><defs><style>.cls-1{fill:#e5e5e5;}</style></defs><title>audio-item</title><g id="Слой_2" data-name="Слой 2"><g id="Capa_1" data-name="Capa 1"><path class="cls-1" d="M382.75,137.86a15.83,15.83,0,0,0-3.46-5.18l-128-128A16.23,16.23,0,0,0,240,0H32A32,32,0,0,0,0,32V480a32,32,0,0,0,32,32H352a32,32,0,0,0,32-32V144A16,16,0,0,0,382.75,137.86ZM256,54.62,329.38,128H256ZM352,480H32V32H224v96a32,32,0,0,0,32,32h96Z"/><path class="cls-1" d="M210.94,192.29a10.82,10.82,0,0,0-1.44,0A11.39,11.39,0,0,0,208,192a14.47,14.47,0,0,0-1.7.35,13.56,13.56,0,0,0-3,.61,14.4,14.4,0,0,0-3,1.28,15.22,15.22,0,0,0-2.24,1.5,13.82,13.82,0,0,0-2.37,2.37,16,16,0,0,0-1.54,2.3,15,15,0,0,0-1.28,3.14,14.8,14.8,0,0,0-.61,1.5,10.82,10.82,0,0,0,0,1.44A11.39,11.39,0,0,0,192,208V358.46A81.54,81.54,0,0,0,160,352c-35.87,0-64,21.09-64,48s28.13,48,64,48,64-21.09,64-48V230.08c14.5,6.43,32,18.5,32,39.94a16,16,0,1,0,32,0C288,219.94,237.6,197.28,210.94,192.29ZM160,416c-19.52,0-32-9.47-32-16s12.48-16,32-16,32,9.47,32,16S179.52,416,160,416Z"/></g></g></svg>