<svg xmlns="http://www.w3.org/2000/svg" viewBox="0 0 512 511.35"><defs><style>.cls-1{fill:#8dc63f;}</style></defs><title>bnf-icon-7</title><g id="Слой_2" data-name="Слой 2"><g id="Layer_1" data-name="Layer 1"><path class="cls-1" d="M373.15,19.8,77.71,0A17.52,17.52,0,0,0,59.08,16.33L56.77,50.89H17.5A17.52,17.52,0,0,0,0,68.39V493.85a17.52,17.52,0,0,0,17.5,17.5H243.64a7.58,7.58,0,0,0,5.29-2.18l34.14-34a7.45,7.45,0,0,0,1.07.16l58.28,3.9A17.94,17.94,0,0,0,361,462.94L389.44,38.43A17.65,17.65,0,0,0,373.15,19.8Zm-122,465.9V433.6a2.5,2.5,0,0,1,2.5-2.5h51.9Zm94.94-23.76a2.5,2.5,0,0,1-2.66,2.33l-46.28-3.1,31.75-31.61a7.5,7.5,0,0,0,2.21-5.32V68.39a17.52,17.52,0,0,0-17.5-17.5h-78c-9.7,0-9.7,15,0,15h78a2.5,2.5,0,0,1,2.5,2.5V416.1H253.64a17.52,17.52,0,0,0-17.5,17.5v62.75H17.5a2.5,2.5,0,0,1-2.5-2.5V68.39a2.5,2.5,0,0,1,2.5-2.5H195.67c9.7,0,9.7-15,0-15H71.8L74,17.33A2.5,2.5,0,0,1,76.71,15L372.15,34.77a2.5,2.5,0,0,1,2.33,2.66Z"/><path class="cls-1" d="M267.83,236.72H63.27a7.5,7.5,0,0,0,0,15H267.83a7.5,7.5,0,0,0,0-15Z"/><path class="cls-1" d="M267.83,289H63.27a7.5,7.5,0,1,0,0,15H267.83a7.5,7.5,0,0,0,0-15Z"/><path class="cls-1" d="M55.77,191.94a7.5,7.5,0,0,0,7.5,7.5H267.83a7.5,7.5,0,0,0,0-15H63.27A7.5,7.5,0,0,0,55.77,191.94Z"/><path class="cls-1" d="M91.81,139.65a7.5,7.5,0,0,0,7.5,7.5H231.79a7.5,7.5,0,1,0,0-15H99.31A7.5,7.5,0,0,0,91.81,139.65Z"/><path class="cls-1" d="M194.76,438.46l-40.47.09-13.6,0c-8.21,0-13.75-1.64-15.59-10.68-1.56-7.64-12.36-6.61-14.46,0-5.19,16.34-13.77,9.94-18.58-1.05s-6-23.23-8.12-34.9c-1.54-8.57-14.51-6.17-14.73,2a139.75,139.75,0,0,1-4,31.76c-2.81,10.76-7,21.1-11.22,31.38-3.65,9,10.87,12.82,14.46,4A289.6,289.6,0,0,0,78.6,433.34c5.14,12.36,15.77,26.34,30.93,18.1a30.21,30.21,0,0,0,7.76-6.25c7.88,9.11,19.61,8.39,30.58,8.38q23.44,0,46.88-.1c9.65,0,9.67-15,0-15Z"/><path class="cls-1" d="M505.93,246.12a21.57,21.57,0,0,0-14.7-6l-5.67,0V229.41a20.76,20.76,0,0,0-9.43-16.86v-15.1c0-31.07-48.37-30.93-48.37.15v15.1a19.82,19.82,0,0,0-9.45,16.85v11c-25,1.7-25,39.75,0,41.23.16,33.58.15,66.6,0,100.74,0,9.41,14.95,10,15,.08.18-34.17.19-67.22,0-100.82l37.21-.18s0,110.85,0,160.78c0,24.34-37.22,24.5-37.22-.25V428.43c.58-9.68-14.39-10.58-15-.9v12.83c0,11,3.4,20.32,10,26.87a62.72,62.72,0,0,0,18.37,42c3.2,3.18,7.64,2.21,10.74-.18a61.85,61.85,0,0,0,18.17-42.41c5-4.93,9.91-9.9,9.91-26.9V371.34C498.48,375,512,365,512,351.39V260.72a20.46,20.46,0,0,0-6.07-14.6Zm-72.62-5.73V229.55a4.82,4.82,0,0,1,3.57-4.63l30-.15a4.73,4.73,0,0,1,3.66,4.65v10.79Zm18.67-52c4.6,0,9.15,4.51,9.15,9.06v12.17l-18.37.09V197.6a9.25,9.25,0,0,1,9.22-9.21Zm0,303.9a47.85,47.85,0,0,1-7.42-16.41,32.62,32.62,0,0,0,14.87-.19A46.77,46.77,0,0,1,452,492.29Zm45-140.9c0,7.1-11.45,7.66-11.45.13,0,0,0-71,0-77.48a7.56,7.56,0,0,0-7.56-7.51l-58.39.29c-7.24,0-7.07-11.33.07-11.37l71.61-.35q5.19.44,5.69,5.62v90.67Z"/></g></g></svg>