<svg xmlns="http://www.w3.org/2000/svg" viewBox="0 0 496 496"><defs><style>.cls-1{fill:#8dc63f;}</style></defs><title>bnf-icon-5</title><g id="Слой_2" data-name="Слой 2"><g id="Layer_5" data-name="Layer 5"><path class="cls-1" d="M160,288h16v16H160Z"/><path class="cls-1" d="M128,288h16v16H128Z"/><path class="cls-1" d="M192,288h16v16H192Z"/><path class="cls-1" d="M192,320h16v16H192Z"/><path class="cls-1" d="M160,320h16v16H160Z"/><path class="cls-1" d="M128,320h16v16H128Z"/><path class="cls-1" d="M192,352h16v16H192Z"/><path class="cls-1" d="M160,352h16v16H160Z"/><path class="cls-1" d="M128,352h16v16H128Z"/><path class="cls-1" d="M64,320H80v16H64Z"/><path class="cls-1" d="M64,352H80v16H64Z"/><path class="cls-1" d="M336,128H192v48H336Zm-16,32H208V144H320Z"/><path class="cls-1" d="M416,160h16v16H416Z"/><path class="cls-1" d="M448,160h16v16H448Z"/><path class="cls-1" d="M448,192h16v16H448Z"/><path class="cls-1" d="M416,192h16v16H416Z"/><path class="cls-1" d="M416,224h16v16H416Z"/><path class="cls-1" d="M448,224h16v16H448Z"/><path class="cls-1" d="M448,256h16v16H448Z"/><path class="cls-1" d="M416,256h16v16H416Z"/><path class="cls-1" d="M496,96V72a56,56,0,0,0-112,0V96h16v32H384V294.1c-5.7-11.78-11-23.75-16-35.84V96H352V32H328V0H200V32H176V96H160V256H96v32H32V437.48A56,56,0,0,0,0,488v8H496V480H448V431.18c27.09-5,48-35,48-71.18V128H480V96ZM400,72a40,40,0,0,1,80,0v8H400Zm16,24h16v32H416ZM352,360V332.28l20.44-13.62-8.87-13.31L352,313.06V296H336v36.69l-10.34-10.34-11.31,11.31L336,355.31V360H286.39a692.81,692.81,0,0,0,55.14-112h5a692.15,692.15,0,0,0,55.14,112ZM216,16h96V32H216ZM192,48H336V96H320V64H304V96H288V64H272V96H256V64H240V96H224V64H208V96H192Zm-16,64H352V232H336V192H192v48H327.38A675.81,675.81,0,0,1,269,357.72L257.57,376H336v56.8a54.74,54.74,0,0,0-42.38-16.74A56.37,56.37,0,0,0,240,376V256H176Zm144,96v16H208V208ZM112,272H224V378.46a55.68,55.68,0,0,0-37.94,38.47,55.67,55.67,0,0,0-22.82.55A56.11,56.11,0,0,0,112,384ZM48,304H96v82.36a55.65,55.65,0,0,0-16,7.75V384H64v16h8.91a55.83,55.83,0,0,0-16.34,32H56a56.21,56.21,0,0,0-8,.64Zm8,144a40.16,40.16,0,0,1,6.7.61l9.3.87V440a40,40,0,0,1,78.56-10.49l2.35,8.66,8.33-3.33a39.68,39.68,0,0,1,28.33-.44l9.59,3.46,1.07-10.14A40,40,0,0,1,279.5,426l1.23,8.17,8.11-1.49A39.83,39.83,0,0,1,336,472v8H16.81A40.06,40.06,0,0,1,56,448Zm296,32V376h33.4c5.1,29,23.76,51,46.6,55.19V480Zm88-64c-17.85,0-33.31-16.69-38.3-40h28.72L419,357.72c-4.92-7.87-9.58-15.91-14.17-24,7-18.12,20.45-29.73,35.17-29.73,22.06,0,40,25.13,40,56S462.06,416,440,416Zm0-128c-15.44,0-29.68,8.17-40,21.74V144h80V309.71C469.82,296.34,455.66,288,440,288Zm24-160H448V96h16Z"/></g></g></svg>