<svg xmlns="http://www.w3.org/2000/svg" viewBox="0 0 511.99 512"><defs><style>.cls-1{fill:#8dc63f;}</style></defs><title>bnf-icon-6</title><g id="Слой_2" data-name="Слой 2"><g id="Capa_1" data-name="Capa 1"><path class="cls-1" d="M85.06,454.93A10,10,0,1,0,88,462,10.07,10.07,0,0,0,85.06,454.93Z"/><path class="cls-1" d="M469.52,182.94a10,10,0,1,0,2.94,7.07A10.05,10.05,0,0,0,469.52,182.94Z"/><path class="cls-1" d="M509.06,2.93A10,10,0,0,0,502,0H256a10,10,0,0,0-10,10v28.6L151.2,64a10,10,0,0,0-7.07,12.25L193.26,259.6l-42.5,42.5A30,30,0,0,0,126,289H30A30,30,0,0,0,0,319V482a30,30,0,0,0,30,30h96a30,30,0,0,0,29.12-22.78L167,499.59A50.38,50.38,0,0,0,200.12,512H502a10,10,0,0,0,10-10V10A10,10,0,0,0,509.06,2.93ZM136,482a10,10,0,0,1-10,10H30a10,10,0,0,1-10-10V319a10,10,0,0,1,10-10H68V424.2a10,10,0,0,0,20,0V309h38a10,10,0,0,1,10,10V482ZM166,80.74l80-21.42V96.37l-6.7,1.8a10,10,0,0,0-7.07,12.25,27,27,0,0,1-19,33,10,10,0,0,0-7.07,12.27l39,144.34H225l-10.34-40.46A10,10,0,0,0,213,256Zm80,61.49v84.38l-18.24-67.54A46.85,46.85,0,0,0,246,142.23ZM389.66,492H200.12a30.39,30.39,0,0,1-20-7.48L156,463.45V325.15l43.66-43.66,7.92,31a10,10,0,0,0,9.69,7.52h196.6a14,14,0,0,1,0,28H313.12a10,10,0,0,0,0,20h132a14,14,0,0,1,0,28h-132a10,10,0,0,0,0,20H423.77a14,14,0,0,1,0,28H313.12a10,10,0,0,0,0,20h76.53a14,14,0,1,1,0,28ZM492,492H420.63a33.88,33.88,0,0,0,0-28h3.14a34,34,0,0,0,30.39-49.22,34,34,0,0,0,18.29-53V235a10,10,0,1,0-20,0V348.8a34,34,0,0,0-7.29-.8h-.33a34,34,0,0,0-31-48H397.79a47.86,47.86,0,1,0-37.6,0H305.52V109.86A47.07,47.07,0,0,0,341.38,74H416.6a47.07,47.07,0,0,0,35.85,35.85V141a10,10,0,1,0,20,0v-40a10,10,0,0,0-10-10A27,27,0,0,1,435.52,64a10,10,0,0,0-10-10H332.45a10,10,0,0,0-10,10,27,27,0,0,1-26.92,26.93,10,10,0,0,0-10,10V300H266V20H492ZM379,283.86A27.86,27.86,0,1,1,406.85,256,27.89,27.89,0,0,1,379,283.86Z"/></g></g></svg>