<?xml version="1.0" encoding="utf-8"?>
<!-- Generator: Adobe Illustrator 20.0.0, SVG Export Plug-In . SVG Version: 6.00 Build 0)  -->
<svg version="1.1" id="Capa_1" xmlns="http://www.w3.org/2000/svg" xmlns:xlink="http://www.w3.org/1999/xlink" x="0px" y="0px"
	 viewBox="0 0 96.4 121.9" style="enable-background:new 0 0 96.4 121.9;" xml:space="preserve">
<style type="text/css">
	.st0{fill:#8DC63F;}
</style>
<g>
	<g>
		<g>
			<path class="st0" d="M84.1,15.7H73v-5c0-1.6-1.8-2.3-3.4-2.3H61c-2-5.8-7.2-8.8-13-8.8c-5.8-0.2-11,3.3-13,8.8h-8.5
				c-1.6,0-3.2,0.7-3.2,2.3v5H12.3C5.7,15.8,0.3,20.9,0,27.5v83.7c0,6.4,5.8,11.1,12.3,11.1h71.8c6.4,0,12.3-4.7,12.3-11.1V27.5
				C96.1,20.9,90.7,15.8,84.1,15.7z M29.2,14.2h8c1.4-0.2,2.5-1.2,2.8-2.6c0.9-3.8,4.2-6.5,8-6.6c3.8,0.1,7.1,2.8,7.9,6.6
				c0.3,1.4,1.5,2.5,2.9,2.6h8.3v11.7h-38V14.2z M90.5,111.2c0,3.2-3.2,5.3-6.4,5.3H12.3c-3.2,0-6.4-2-6.4-5.3V27.5
				c0.3-3.3,3.1-5.9,6.4-6h11.1V29c0.2,1.6,1.6,2.9,3.2,2.8h43.1c1.7,0.1,3.1-1.1,3.4-2.8v-7.4h11.1c3.4,0.1,6.1,2.6,6.4,6
				L90.5,111.2L90.5,111.2z"/>
			<path class="st0" d="M36.9,64.9c-1.1-1.2-2.9-1.2-4.1-0.1l-9.3,8.9l-3.9-4.1c-1.1-1.2-2.9-1.2-4.1-0.1c-1.1,1.2-1.1,3,0,4.2
				l6,6.1c0.5,0.6,1.3,0.9,2,0.9c0.8,0,1.5-0.3,2-0.9L36.9,69c1.1-1,1.2-2.8,0.2-3.9C37.1,65,37,64.9,36.9,64.9z"/>
			<path class="st0" d="M78.9,71.2H45.3c-1.6,0-2.9,1.3-2.9,2.9s1.3,2.9,2.9,2.9h33.6c1.6,0,2.9-1.3,2.9-2.9S80.5,71.2,78.9,71.2z"
				/>
			<path class="st0" d="M36.9,41.5c-1.1-1.2-2.9-1.2-4.1-0.1l-9.3,8.9l-3.9-4.1c-1.1-1.2-2.9-1.2-4.1-0.1c-1.1,1.2-1.1,3,0,4.2
				l6,6.1c0.5,0.6,1.3,0.9,2,0.9c0.8,0,1.5-0.3,2-0.9l11.4-10.8c1.1-1,1.2-2.8,0.2-3.9C37.1,41.6,37,41.6,36.9,41.5z"/>
			<path class="st0" d="M78.9,47.8H45.3c-1.6,0-2.9,1.3-2.9,2.9c0,1.6,1.3,2.9,2.9,2.9h33.6c1.6,0,2.9-1.3,2.9-2.9
				C81.8,49.1,80.5,47.8,78.9,47.8z"/>
			<path class="st0" d="M36.9,88.3c-1.1-1.2-2.9-1.2-4.1-0.1L23.5,97l-3.9-4.1c-1.1-1.2-2.9-1.2-4.1-0.1c-1.1,1.2-1.1,3,0,4.2l6,6.1
				c0.5,0.6,1.3,0.9,2,0.9c0.8,0,1.5-0.3,2-0.9l11.4-10.8c1.1-1,1.2-2.8,0.2-3.9C37.1,88.4,37,88.3,36.9,88.3z"/>
			<path class="st0" d="M78.9,94.5H45.3c-1.6,0-2.9,1.3-2.9,2.9s1.3,2.9,2.9,2.9h33.6c1.6,0,2.9-1.3,2.9-2.9S80.5,94.5,78.9,94.5z"
				/>
		</g>
	</g>
</g>
</svg>
