<?xml version="1.0" encoding="utf-8"?>
<!-- Generator: Adobe Illustrator 20.0.0, SVG Export Plug-In . SVG Version: 6.00 Build 0)  -->
<svg version="1.1" id="Слой_1" xmlns="http://www.w3.org/2000/svg" xmlns:xlink="http://www.w3.org/1999/xlink" x="0px" y="0px"
	 viewBox="0 0 96.4 96.4" style="enable-background:new 0 0 96.4 96.4;" xml:space="preserve">
<style type="text/css">
	.st0{fill:#E5E5E5;}
	.st1{fill:#FFFFFF;}
	.st2{fill:#64B161;}
</style>
<path class="st0" d="M2,95.3c-0.5,0-1.1-0.2-1.4-0.6c-0.5-0.5-0.7-1.3-0.5-2l6.2-22.6c-3.9-7-5.9-14.9-5.9-22.9
	C0.4,21.2,21.7,0,47.8,0c12.7,0,24.6,4.9,33.6,13.8c9,8.9,13.9,20.8,13.9,33.4c0,26-21.3,47.2-47.4,47.2c0,0,0,0,0,0
	c-7.6,0-15.2-1.9-22-5.4L2.6,95.2C2.4,95.2,2.2,95.3,2,95.3z"/>
<path class="st1" d="M2,93.2l6.4-23.4c-4-6.9-6.1-14.6-6.1-22.6C2.4,22.3,22.8,2,47.8,2C60,2,71.4,6.7,79.9,15.3
	c8.6,8.5,13.3,19.9,13.3,32c0,24.9-20.4,45.2-45.4,45.2c0,0,0,0,0,0h0c-7.6,0-15.1-1.9-21.7-5.5L2,93.2z M27.2,78.8l1.4,0.8
	c5.8,3.4,12.4,5.2,19.2,5.2h0c20.8,0,37.7-16.9,37.7-37.6c0-10-3.9-19.5-11-26.6c-7.1-7.1-16.6-11-26.7-11
	C27,9.7,10.1,26.5,10.1,47.2c0,7.1,2,14,5.8,20l0.9,1.4l-3.8,13.9L27.2,78.8z"/>
<path class="st2" d="M3.6,91.7l6.2-22.6C6,62.4,4,54.9,4,47.2C4,23.2,23.7,3.6,47.8,3.6c11.7,0,22.7,4.5,31,12.8
	c8.3,8.2,12.8,19.2,12.8,30.9c0,24.1-19.7,43.6-43.8,43.6c0,0,0,0,0,0h0c-7.3,0-14.5-1.8-20.9-5.3L3.6,91.7z"/>
<g>
	<path class="st1" d="M2,93.2l6.4-23.4c-4-6.9-6.1-14.6-6.1-22.6C2.4,22.3,22.8,2,47.8,2C60,2,71.4,6.7,79.9,15.3
		c8.6,8.5,13.3,19.9,13.3,32c0,24.9-20.4,45.2-45.4,45.2c0,0,0,0,0,0h0c-7.6,0-15.1-1.9-21.7-5.5L2,93.2z M27.2,78.8l1.4,0.8
		c5.8,3.4,12.4,5.2,19.2,5.2h0c20.8,0,37.7-16.9,37.7-37.6c0-10-3.9-19.5-11-26.6c-7.1-7.1-16.6-11-26.7-11
		C27,9.7,10.1,26.5,10.1,47.2c0,7.1,2,14,5.8,20l0.9,1.4l-3.8,13.9L27.2,78.8z"/>
	<path class="st1" d="M36.5,28.3c-0.8-1.9-1.7-1.9-2.6-2c-0.7,0-1.4,0-2.2,0c-0.8,0-2,0.3-3,1.4c-1,1.1-4,3.9-4,9.4
		c0,5.6,4.1,10.9,4.6,11.7c0.6,0.8,7.8,12.5,19.4,17.1c9.6,3.8,11.5,3,13.6,2.8c2.1-0.2,6.7-2.7,7.7-5.4c0.9-2.6,0.9-4.9,0.7-5.4
		c-0.3-0.5-1-0.8-2.2-1.3c-1.1-0.6-6.7-3.3-7.8-3.7c-1-0.4-1.8-0.6-2.6,0.6c-0.8,1.1-2.9,3.7-3.6,4.4c-0.7,0.8-1.3,0.8-2.5,0.3
		c-1.1-0.6-4.8-1.8-9.1-5.6c-3.4-3-5.7-6.7-6.3-7.8c-0.7-1.1,0-1.7,0.5-2.3c0.9-1.1,2.5-3.1,2.8-3.9c0.4-0.8,0.2-1.4-0.1-2
		C39.7,36.1,37.5,30.6,36.5,28.3z"/>
</g>
</svg>
