<svg xmlns="http://www.w3.org/2000/svg" viewBox="0 0 360 424.17"><defs><style>.cls-1{fill:#8dc63f;}</style></defs><title>card-icon-5</title><g id="Слой_2" data-name="Слой 2"><g id="Capa_1" data-name="Capa 1"><path class="cls-1" d="M328,0H32A32,32,0,0,0,0,32V416.17a8,8,0,0,0,8,8H352a8,8,0,0,0,8-8V32A32,32,0,0,0,328,0ZM16,408.17V80H288.17a8,8,0,0,0,0-16H16V32A16,16,0,0,1,32,16H328a16,16,0,0,1,16,16V64H320.25a8,8,0,0,0,0,16H344V408.17Z"/><path class="cls-1" d="M180,112c-73,0-132.33,59.36-132.33,132.33S107,376.66,180,376.66,312.33,317.3,312.33,244.33,253,112,180,112Zm0,248.66a116.33,116.33,0,1,1,107.82-160H280.5a31.88,31.88,0,0,0-9.8,1.54,100,100,0,1,0,0,84.25,31.88,31.88,0,0,0,9.8,1.54h7.32A116.51,116.51,0,0,1,180,360.66Zm91.59-91.38c-.15-.12-.31-.24-.47-.35A16,16,0,0,1,264.5,256V232.67a16,16,0,0,1,6.61-12.93l.47-.35a15.91,15.91,0,0,1,8.91-2.72H293A116.5,116.5,0,0,1,293,272H280.5A15.9,15.9,0,0,1,271.59,269.28Zm-14.52,8.48a84,84,0,1,1,0-66.86,31.87,31.87,0,0,0-8.57,21.76V256A31.87,31.87,0,0,0,257.07,277.76Z"/><path class="cls-1" d="M312,40.08A15.92,15.92,0,1,0,296.08,56,15.94,15.94,0,0,0,312,40.08Z"/><path class="cls-1" d="M248.42,24.17a15.92,15.92,0,1,0,15.92,15.92A15.94,15.94,0,0,0,248.42,24.17Z"/><path class="cls-1" d="M120.33,32.08h-72a8,8,0,0,0,0,16h72a8,8,0,1,0,0-16Z"/><path class="cls-1" d="M167.67,32.08H152.25a8,8,0,0,0,0,16h15.42a8,8,0,0,0,0-16Z"/><path class="cls-1" d="M180,176a68.41,68.41,0,0,0-68.33,68.33,8,8,0,0,0,16,0A52.39,52.39,0,0,1,180,192a8,8,0,0,0,0-16Z"/></g></g></svg>