<svg xmlns="http://www.w3.org/2000/svg" viewBox="0 0 423.91 472"><defs><style>.cls-1{fill:#8dc63f;}</style></defs><title>card-icon-3</title><g id="Слой_2" data-name="Слой 2"><g id="Слой_1-2" data-name="Слой 1"><path class="cls-1" d="M415.92,208a8,8,0,0,0,8-8V8a8,8,0,0,0-8-8c-34.61,0-88,27.48-88,64v8H160a40,40,0,0,0-40,40v38.11a47.92,47.92,0,0,0-15.31,27.13,104,104,0,0,0-88.33,96.09A23.93,23.93,0,0,0,24,319.94h240a23.93,23.93,0,0,0,7.66-46.62,104,104,0,0,0-88.33-96.09A47.92,47.92,0,0,0,168,150.09V120h160v24C327.93,180.48,381.31,208,415.92,208Zm-72-144c0-23.19,36.89-43.78,64-47.42V191.4c-27.1-3.64-64-24.23-64-47.42ZM166.52,176H121.42c2.7-8.12,8.8-16,14.56-16h16C157.75,160,163.82,167.85,166.52,176Zm97.42,128H24a8,8,0,0,1,0-16h240a8,8,0,0,1,0,16Zm-8.36-32H32.35A88.1,88.1,0,0,1,120,192h48A88.1,88.1,0,0,1,255.59,271.95ZM160,104a8,8,0,0,0-8,8v32H136V112a24,24,0,0,1,24-24h168v16Z"/><path class="cls-1" d="M40,343.93a8,8,0,0,0-16,0v8a8,8,0,0,0,16,0Z"/><path class="cls-1" d="M72,343.93a8,8,0,0,0-16,0v48a8,8,0,1,0,16,0Z"/><path class="cls-1" d="M104,343.93a8,8,0,0,0-16,0v8a8,8,0,0,0,16,0Z"/><path class="cls-1" d="M136,343.93a8,8,0,0,0-16,0v48a8,8,0,1,0,16,0Z"/><path class="cls-1" d="M168,343.93a8,8,0,0,0-16,0v8a8,8,0,0,0,16,0Z"/><path class="cls-1" d="M200,343.93a8,8,0,0,0-16,0v48a8,8,0,1,0,16,0Z"/><path class="cls-1" d="M232,343.93a8,8,0,1,0-16,0v8a8,8,0,1,0,16,0Z"/><path class="cls-1" d="M64,415.92a8,8,0,0,0-8,8v24a8,8,0,0,0,16,0v-24A8,8,0,0,0,64,415.92Z"/><path class="cls-1" d="M128,415.92a8,8,0,0,0-8,8v24a8,8,0,0,0,16,0v-24A8,8,0,0,0,128,415.92Z"/><path class="cls-1" d="M192,415.92a8,8,0,0,0-8,8v24a8,8,0,0,0,16,0v-24A8,8,0,0,0,192,415.92Z"/><path class="cls-1" d="M255.95,415.92a8,8,0,0,0-8,8v24a8,8,0,0,0,16,0v-24A8,8,0,0,0,255.95,415.92Z"/><path class="cls-1" d="M263.95,343.93a8,8,0,0,0-16,0v48a8,8,0,1,0,16,0Z"/><path class="cls-1" d="M40,383.92a8,8,0,0,0-16,0v48a8,8,0,0,0,16,0Z"/><path class="cls-1" d="M104,383.92a8,8,0,0,0-16,0v48a8,8,0,0,0,16,0Z"/><path class="cls-1" d="M168,383.92a8,8,0,0,0-16,0v48a8,8,0,0,0,16,0Z"/><path class="cls-1" d="M232,383.92a8,8,0,1,0-16,0v48a8,8,0,1,0,16,0Z"/><path class="cls-1" d="M35,456.46a8.29,8.29,0,0,0-4.64-.39,10.7,10.7,0,0,0-1.44.39,15.85,15.85,0,0,0-1.45.8,13.34,13.34,0,0,0-1.19,1,9.22,9.22,0,0,0-1.68,2.64,6.72,6.72,0,0,0-.64,3,8,8,0,1,0,15.36-3,8.26,8.26,0,0,0-1.68-2.64A12.15,12.15,0,0,0,35,456.46Z"/><path class="cls-1" d="M90.3,458.23a8.26,8.26,0,0,0-1.68,2.64,7.91,7.91,0,0,0,1.68,8.72,8.26,8.26,0,0,0,2.64,1.68,7.92,7.92,0,0,0,10.4-10.4,9.22,9.22,0,0,0-1.68-2.64A8.37,8.37,0,0,0,90.3,458.23Z"/><path class="cls-1" d="M164.36,457.27a8.62,8.62,0,0,0-1.36-.8,9.32,9.32,0,0,0-1.53-.39,8,8,0,0,0-4.55.39,12.05,12.05,0,0,0-2.64,1.77,8.26,8.26,0,0,0-1.68,2.64,7.91,7.91,0,0,0,1.68,8.72,9.22,9.22,0,0,0,2.64,1.68,7.92,7.92,0,0,0,10.4-10.4,9.22,9.22,0,0,0-1.68-2.64A8.17,8.17,0,0,0,164.36,457.27Z"/><path class="cls-1" d="M218.27,458.23a8.26,8.26,0,0,0-1.68,2.64,6.69,6.69,0,0,0-.64,3,7.93,7.93,0,0,0,2.32,5.68,9.22,9.22,0,0,0,2.64,1.68,7.92,7.92,0,0,0,11-7.36,6.79,6.79,0,0,0-.64-3,9.22,9.22,0,0,0-1.68-2.64A8.37,8.37,0,0,0,218.27,458.23Z"/></g></g></svg>