<svg xmlns="http://www.w3.org/2000/svg" viewBox="0 0 471.17 512"><defs><style>.cls-1{fill:#8dc63f;}</style></defs><title>card-icon-1</title><g id="Слой_2" data-name="Слой 2"><g id="Layer_1" data-name="Layer 1"><path class="cls-1" d="M444.18,247.49H438a30.06,30.06,0,0,0-28.34-19.71H218.86a30.23,30.23,0,0,0-13.8,3.31V35.94a8.37,8.37,0,0,0-16.54-1.83V33a33.05,33.05,0,0,0-33-33H33A33.05,33.05,0,0,0,0,33V46.57A14.38,14.38,0,0,0,8.8,59.8V230.52a39.94,39.94,0,0,0,12.38,28.92,27,27,0,0,0,22.4,42H92.22v79.08a35.29,35.29,0,0,0,34.64,35.24l-12.53,86.64a8.38,8.38,0,0,0,8.29,9.57H301a8.37,8.37,0,0,0,8.15-10.32L288.7,415.79h38.39A125.47,125.47,0,0,0,452.16,300.26a27,27,0,0,0-8-52.77Zm-225.32-3H409.64a13.43,13.43,0,0,1,8.44,3H210.43A13.42,13.42,0,0,1,218.86,244.53Zm-40.2-14V93.21a12.14,12.14,0,0,0,0-22.19V60.19a14.38,14.38,0,0,0,9.65-11.29V244.54a8.35,8.35,0,0,0,.54,2.95h-14A39.8,39.8,0,0,0,178.66,230.52ZM16.75,44.17V33A16.28,16.28,0,0,1,33,16.75H155.51A16.28,16.28,0,0,1,171.77,33V44.17Zm8.8,186.35V60.92H161.91v169.6a23.4,23.4,0,0,1-7.39,17h-111a26.87,26.87,0,0,0-8.86,1.5A23.25,23.25,0,0,1,25.55,230.52ZM403.11,368a108.12,108.12,0,0,1-76,31h-49a8.37,8.37,0,0,0-8.15,10.32l20.47,85.89H132.29l12.53-86.64a8.38,8.38,0,0,0-8.29-9.57h-9.07A18.51,18.51,0,0,1,109,380.55V301.47H435.23A108,108,0,0,1,403.11,368Zm41.07-83.32H43.57a10.24,10.24,0,1,1,0-20.47H444.18a10.24,10.24,0,1,1,0,20.47Z"/></g></g></svg>