<svg xmlns="http://www.w3.org/2000/svg" viewBox="0 0 480 480"><defs><style>.cls-1{fill:#8dc63f;}</style></defs><title>card-icon-4</title><g id="Слой_2" data-name="Слой 2"><g id="Capa_1" data-name="Capa 1"><path class="cls-1" d="M472,200H296V176a8,8,0,0,0-8-8H264V88a40,40,0,0,1,80,0v16a8,8,0,0,0,8,8h32a8,8,0,0,0,8-8V88a88,88,0,0,0-176,0v80H192a8,8,0,0,0-8,8v24H120a8,8,0,0,0,8-8V168.41l8-79.61A8,8,0,0,0,128.84,80a8.13,8.13,0,0,0-.84,0H80a8,8,0,0,0-8,8.8l8,79.61V192a8,8,0,0,0,8,8H8a8,8,0,0,0-8,8v32a8,8,0,0,0,8,8h8.41A136.06,136.06,0,0,0,152,376h32v48a56,56,0,0,0,112,0V376h32A136.06,136.06,0,0,0,463.59,248H472a8,8,0,0,0,8-8V208A8,8,0,0,0,472,200ZM232,88a72,72,0,0,1,144,0v8H360V88a56,56,0,0,0-112,0v80H232Zm-32,96h80v16H200ZM119.2,96l-6.4,64H95.28l-6.4-64ZM112,176v8H96v-8ZM280,424a40,40,0,0,1-80,0V376h80Zm48-64H152A120.17,120.17,0,0,1,32.26,248H447.74A120.17,120.17,0,0,1,328,360ZM464,232H16V216H464Z"/></g></g></svg>