<svg xmlns="http://www.w3.org/2000/svg" viewBox="0 0 107.8 53.9"><defs><style>.cls-1{fill:#8bc441;}</style></defs><title>card-icon-2</title><g id="Слой_2" data-name="Слой 2"><g id="Capa_1" data-name="Capa 1"><path class="cls-1" d="M98.7,3.6H43.1V0H19.7V3.6H5.4A5.38,5.38,0,0,0,0,9a5.46,5.46,0,0,0,4,5.2l6.4,23a12.92,12.92,0,0,0,9.4,9.1v4H1.8a1.8,1.8,0,1,0,0,3.6H105.9a1.8,1.8,0,1,0,0-3.6H88v-4a13.1,13.1,0,0,0,9.4-9.1l6.4-23a5.39,5.39,0,0,0-1.4-10.6m-.1,3.6a1.8,1.8,0,1,1,0,3.6H43.1V7.2ZM39.5,3.6V23.4H23.3V3.6ZM23.3,26.9H39.5v3.6H23.3ZM5.4,7.2H19.8v3.6H5.4a1.8,1.8,0,1,1,0-3.6Zm8.4,28.9L7.7,14.4h12V34.2H43V14.3h57L93.9,36.1A9.42,9.42,0,0,1,84.8,43H22.9A9.31,9.31,0,0,1,13.8,36.1ZM76.1,46.7l1.8,3.6h-48l1.8-3.6ZM23.3,50.3V46.7h4.3l-1.8,3.6Zm58.6,0-1.8-3.6h4.3v3.6Z"/></g></g></svg>