<svg xmlns="http://www.w3.org/2000/svg" xmlns:xlink="http://www.w3.org/1999/xlink" viewBox="0 0 538.59 153.07"><defs><style>.cls-1{fill:none;}.cls-2{clip-path:url(#clip-path);}.cls-3{fill:url(#Безымянный_градиент);}.cls-4{clip-path:url(#clip-path-2);}.cls-5{fill:url(#Безымянный_градиент_2);}</style><clipPath id="clip-path"><path class="cls-1" d="M78.72,38.51q-.63-.23-1.23-.49l.57-.26.67.75m5.69,1.14a19.71,19.71,0,0,1-2.72-.33,22.11,22.11,0,0,1-2.13-2.19q1-.38,2-.71a34.92,34.92,0,0,0,2.84,3.23Zm4.73-.33a19.71,19.71,0,0,1-2.52.32A33.35,33.35,0,0,1,83.16,36q1.28-.33,2.6-.56a34.89,34.89,0,0,0,3.37,3.88Zm4-1.21a19.54,19.54,0,0,1-2.19.78,33.36,33.36,0,0,1-3.41-3.75q1.46-.18,3-.22a35,35,0,0,0,2.55,3.19Zm3.55-2a19.77,19.77,0,0,1-2.09,1.27,32.51,32.51,0,0,1-2.18-2.5,33.14,33.14,0,0,1,3.53.28,6.25,6.25,0,0,0,.69,1ZM77,36.53q-.65.3-1.29.63a19.81,19.81,0,0,1-2.88-2q1.1-.71,2.25-1.33Q76,35.23,77,36.53Zm3.56-1.41q-1.06.35-2.1.77a33.5,33.5,0,0,1-2-2.75q1.09-.52,2.22-1,.91,1.56,1.91,3ZM84.78,34q-1.34.26-2.64.63a33.48,33.48,0,0,1-2-3q1.33-.45,2.71-.79A34.87,34.87,0,0,0,84.78,34Zm4.64-.59q-1.5.09-3,.3a33.4,33.4,0,0,1-2-3.22q1.49-.29,3-.44a34.85,34.85,0,0,0,2,3.38Zm5.3.09q-1.6-.15-3.24-.15h-.25A33.37,33.37,0,0,1,89.14,30h1.63q.82,0,1.88,0a34.9,34.9,0,0,0,2.07,3.47Zm5.6-.67A17.63,17.63,0,0,1,99,34.18q-1.12-.25-2.27-.43a33.37,33.37,0,0,1-2.31-3.66,32.87,32.87,0,0,1,4.72.88q.55,1,1.15,1.88Zm-26-.31q-1.36.74-2.64,1.59a19.91,19.91,0,0,1-2.35-2.72,33.11,33.11,0,0,1,3.25-2.27,34.72,34.72,0,0,0,1.74,3.42ZM78,30.81q-1.17.47-2.3,1a33.2,33.2,0,0,1-1.77-3.48q1.2-.66,2.46-1.22A34.79,34.79,0,0,0,78,30.81Zm4.2-1.37q-1.4.36-2.76.83a33.17,33.17,0,0,1-1.64-3.74q1.4-.55,2.86-1A34.65,34.65,0,0,0,82.2,29.44Zm4.57-.84q-1.54.18-3,.49a33.15,33.15,0,0,1-1.58-3.92q1.53-.37,3.12-.59A34.7,34.7,0,0,0,86.77,28.6Zm5.13-.21H90.77q-1.2,0-2.38.08a33.26,33.26,0,0,1-1.58-4q1.49-.13,3-.14h.55A34.65,34.65,0,0,0,91.9,28.39Zm6.3.79a34.46,34.46,0,0,0-4.57-.69A33.24,33.24,0,0,1,92,24.35a33,33,0,0,1,4.43.59,34.72,34.72,0,0,0,1.77,4.23Zm4.93-.56q-.43.87-.94,1.69-1-.34-2-.63a33.18,33.18,0,0,1-2-4.32,32.83,32.83,0,0,1,4.05,1.35Q102.67,27.68,103.13,28.62ZM72,27.7a34.69,34.69,0,0,0-3.49,2.42,19.79,19.79,0,0,1-1.27-2.47A33.28,33.28,0,0,1,71,24.71,26.66,26.66,0,0,0,72,27.7Zm3.89-2q-1.3.58-2.54,1.25a30.73,30.73,0,0,1-1-3.08q1.3-.79,2.68-1.46a30.77,30.77,0,0,0,.84,3.26Zm4.33-1.58q-1.48.43-2.91,1a33,33,0,0,1-.87-3.34q1.46-.62,3-1.11a34.58,34.58,0,0,0,.77,3.42Zm4.63-1q-1.6.23-3.14.61a33.07,33.07,0,0,1-.78-3.51,31.69,31.69,0,0,1,3.2-.68,34.55,34.55,0,0,0,.71,3.55ZM90,22.74h-.13q-1.75,0-3.45.17a32.94,32.94,0,0,1-.74-3.6,33.34,33.34,0,0,1,3.61-.21A34.62,34.62,0,0,0,90,22.74Zm6,.54a34.6,34.6,0,0,0-4.37-.49,33,33,0,0,1-.75-3.65,33.08,33.08,0,0,1,4.28.46,34.51,34.51,0,0,0,.75,3.67Zm5.61,1.5a34.24,34.24,0,0,0-3.91-1.15,33.11,33.11,0,0,1-.93-3.71A32.78,32.78,0,0,1,100.45,21a34.54,34.54,0,0,0,1.08,3.77ZM105,23a19.78,19.78,0,0,1-.69,2.9l-.79-.35a33.06,33.06,0,0,1-1.26-3.86q1.32.59,2.65,1.32Zm-34.37.16a34.75,34.75,0,0,0-3.91,3A19.75,19.75,0,0,1,66,23.42a33.25,33.25,0,0,1,4-3.27,30.23,30.23,0,0,0,.55,3Zm4.15-2.31q-1.42.67-2.77,1.46a31.07,31.07,0,0,1-.53-3.07,33,33,0,0,1,2.92-1.61,20.47,20.47,0,0,0,.29,3.2Zm4.49-1.74a30.8,30.8,0,0,0-3,1.1A32.51,32.51,0,0,1,75.94,17a32.72,32.72,0,0,1,3.13-1.15,20.71,20.71,0,0,0,.12,3.28ZM83.91,18q-1.64.26-3.23.67a31.83,31.83,0,0,1-.23-3.31,32.81,32.81,0,0,1,3.27-.67C83.74,15.79,83.8,16.9,83.91,18Zm5.15-.43a34.85,34.85,0,0,0-3.63.22,31.79,31.79,0,0,1-.17-3.3,33.32,33.32,0,0,1,3.47-.18h.18q0,1.64.15,3.25Zm5.77.43a34.7,34.7,0,0,0-4.23-.41q-.16-1.6-.16-3.23a33.06,33.06,0,0,1,4.15.48q0,1.58.25,3.16Zm5.26,1.27a34.3,34.3,0,0,0-3.68-1q-.21-1.55-.28-3.13a32.76,32.76,0,0,1,3.57,1q.13,1.59.4,3.11Zm5-.59v1.17a13.49,13.49,0,0,1-.06,1.5,34.4,34.4,0,0,0-3.34-1.49q-.3-1.51-.46-3.06a32.91,32.91,0,0,1,3.9,1.86Zm-35.37-.23a34.8,34.8,0,0,0-4.06,3.12q-.07-.85-.07-1.72t.05-1.48a33.25,33.25,0,0,1,3.91-3.09q.06,1.59.22,3.15ZM74.19,16a33.74,33.74,0,0,0-3,1.58q-.12-1.6-.08-3.24a32.94,32.94,0,0,1,3.16-1.67v.09c0,1.07-.06,2.16,0,3.23Zm4.69-1.77q-1.62.48-3.17,1.11,0-1.23.07-2.48a5.41,5.41,0,0,1,.07-.87,32.76,32.76,0,0,1,3.23-1.09c-.06.5-.1,1-.13,1.5s0,1.21,0,1.82Zm4.83-1.06a33.15,33.15,0,0,0-3.28.64,9.58,9.58,0,0,1,.06-1.31q.07-1,.2-2A32.82,32.82,0,0,1,84,9.87c-.09.71-.16,1.42-.21,2.14,0,.37,0,.74,0,1.11Zm5.19-.36h-.21q-1.74,0-3.44.17v-.82q.08-1.21.25-2.4,1.22-.09,2.47-.09h1.16c-.1.75-.18,1.51-.23,2.27a2.35,2.35,0,0,1,0,.86Zm5.64.49a34.55,34.55,0,0,0-4.1-.45V12q.08-1.16.23-2.29a32.93,32.93,0,0,1,4,.57,10,10,0,0,1-.09,1c0,.7,0,1.32,0,2Zm5,1.26a34.27,34.27,0,0,0-3.5-1c0-.7,0-1.4.07-2.11a5.39,5.39,0,0,1,.06-.8,32.76,32.76,0,0,1,3.38,1.06q0,1.46.06,2.85Zm4.65-.64a19.76,19.76,0,0,1,.68,2.93,34.44,34.44,0,0,0-3.77-1.72,27,27,0,0,1,0-2.75,33,33,0,0,1,3.16,1.53ZM69.64,13.4A34.75,34.75,0,0,0,66,16a19.73,19.73,0,0,1,1.14-3.81,33.28,33.28,0,0,1,2.79-2c-.11.81-.2,1.62-.25,2.45C69.66,12.92,69.65,13.16,69.64,13.4Zm4.83-2.54a34.49,34.49,0,0,0-3.24,1.59q.13-1.65.41-3.25A32.9,32.9,0,0,1,75,7.55Q74.68,9.17,74.47,10.86Zm4.88-1.67q-1.66.43-3.25,1a33.34,33.34,0,0,1,.66-3.33,32.74,32.74,0,0,1,3.27-1Q79.62,7.52,79.35,9.19Zm4.9-.9A33,33,0,0,0,81,8.81a33.45,33.45,0,0,1,.75-3.26A32.63,32.63,0,0,1,85,5.11Q84.54,6.67,84.25,8.29Zm5.2-.18H88q-1.12,0-2.21.07.3-1.6.75-3.14h1.18q1.19,0,2.36.08Q89.73,6.57,89.45,8.11Zm5.47.66A34.48,34.48,0,0,0,91,8.21q.28-1.52.69-3a32.88,32.88,0,0,1,3.77.67Q95.13,7.31,94.92,8.77Zm4.82,1.35a34.28,34.28,0,0,0-3.31-1q.2-1.43.51-2.82a32.75,32.75,0,0,1,3.16,1.09q-.24,1.34-.36,2.72Zm1.76-1.79a19.8,19.8,0,0,1,1.93,3.37q-1.08-.54-2.2-1,.1-1.21.27-2.38Zm-4-4.18q.68.53,1.31,1.11-.74-.25-1.49-.47ZM93,1.51a19.68,19.68,0,0,1,3.21,1.7c-.12.4-.24.79-.35,1.19a34.4,34.4,0,0,0-3.68-.67A17.1,17.1,0,0,1,93,1.51ZM88.39.23A19.54,19.54,0,0,1,91.53,1Q91,2.27,90.58,3.6q-1.39-.11-2.81-.11h-.69A33,33,0,0,1,88.39.23Zm-18.13,8q-.78.46-1.54,1A19.9,19.9,0,0,1,70.6,6.69q-.18.76-.34,1.53Zm5.22-2.51A34.38,34.38,0,0,0,72,7.24q.33-1.37.76-2.69a19.78,19.78,0,0,1,4-2.55,34.58,34.58,0,0,0-1.25,3.71Zm5-1.49q-1.65.35-3.25.86a33.06,33.06,0,0,1,1.51-3.94A19.55,19.55,0,0,1,82,.29a34.48,34.48,0,0,0-1.48,3.93ZM85.4,0h1.38a34.6,34.6,0,0,0-1.35,3.48q-1.62.11-3.2.36A33.06,33.06,0,0,1,83.82.06Q84.6,0,85.4,0Zm41.51,77.05q-1-.36-1.94-.78l.89-.41Q126.37,76.47,126.91,77.05Zm9,1.79a31.08,31.08,0,0,1-4.29-.51q-1.76-1.65-3.36-3.45,1.56-.61,3.17-1.11a55,55,0,0,0,4.44,5.08Zm7.45-.52a31.08,31.08,0,0,1-4,.5A52.57,52.57,0,0,1,133.91,73q2-.52,4.09-.89a55,55,0,0,0,5.32,6.22Zm6.25-1.9a30.83,30.83,0,0,1-3.46,1.23,52.57,52.57,0,0,1-5.38-5.9q2.31-.28,4.67-.35a55.12,55.12,0,0,0,4.13,5Zm5.6-3.1a31.07,31.07,0,0,1-3.3,2,52.21,52.21,0,0,1-3.43-3.94,52.32,52.32,0,0,1,5.57.45c.34.52.73,1,1.12,1.5Zm-30.92.6q-1,.47-2,1a31.22,31.22,0,0,1-4.54-3.11q1.73-1.12,3.55-2.1a45.34,45.34,0,0,0,3,4.22Zm5.61-2.22q-1.68.56-3.3,1.22a52.75,52.75,0,0,1-3.14-4.33q1.72-.83,3.5-1.53a48.39,48.39,0,0,0,2.9,4.65ZM136.5,70q-2.11.41-4.16,1a52.78,52.78,0,0,1-3.08-4.73q2.1-.71,4.27-1.24a55,55,0,0,0,2.93,5Zm7.31-.93q-2.37.14-4.68.48A52.68,52.68,0,0,1,136,64.45q2.34-.45,4.76-.7a55,55,0,0,0,3,5.25Zm8.36.14q-2.52-.24-5.11-.24h-.39a52.55,52.55,0,0,1-3.3-5.39q1.28-.06,2.57-.06,1.49,0,3,.08a55,55,0,0,0,3.19,5.63Zm8.83-1q-1,1.11-2,2.13-1.77-.39-3.57-.67a52.58,52.58,0,0,1-3.64-5.77,51.76,51.76,0,0,1,7.43,1.38A26.22,26.22,0,0,0,161,68.13Zm-41-.49q-2.14,1.16-4.16,2.5a31.43,31.43,0,0,1-3.7-4.29,52.26,52.26,0,0,1,5.11-3.57A54.76,54.76,0,0,0,120,67.63Zm5.79-2.71q-1.85.74-3.63,1.6A52.37,52.37,0,0,1,119.34,61q1.89-1,3.88-1.93a54.8,54.8,0,0,0,2.54,5.85Zm6.63-2.16q-2.21.56-4.35,1.31a52.32,52.32,0,0,1-2.59-5.89q2.21-.86,4.51-1.53a54.61,54.61,0,0,0,2.4,6.1Zm7.21-1.33q-2.43.28-4.79.77a52.19,52.19,0,0,1-2.5-6.17,49.45,49.45,0,0,1,4.91-.92,54.67,54.67,0,0,0,2.35,6.31Zm8.08-.33h-1.78q-1.89,0-3.75.13a52.32,52.32,0,0,1-2.49-6.37q2.34-.21,4.75-.21h.87a54.65,54.65,0,0,0,2.37,6.44Zm9.94,1.24a54.27,54.27,0,0,0-7.2-1.08,52.37,52.37,0,0,1-2.58-6.53,52,52,0,0,1,7,.93,54.76,54.76,0,0,0,2.75,6.67Zm7.76-.88q-.68,1.37-1.48,2.67-1.55-.54-3.14-1a52.24,52.24,0,0,1-3.13-6.81A51.71,51.71,0,0,1,164,58.45q.66,1.55,1.38,3ZM116.29,60a54.66,54.66,0,0,0-5.51,3.81,31.19,31.19,0,0,1-2-3.9,52.44,52.44,0,0,1,5.9-4.62Q115.38,57.7,116.29,60Zm6.13-3.19q-2.05.91-4,2-.91-2.38-1.59-4.85,2.05-1.24,4.22-2.29.56,2.61,1.37,5.15Zm6.83-2.49q-2.34.68-4.59,1.55a52,52,0,0,1-1.37-5.27A47.1,47.1,0,0,1,128,48.85a54.47,54.47,0,0,0,1.24,5.48Zm7.29-1.57a46.07,46.07,0,0,0-5,1,52.13,52.13,0,0,1-1.24-5.53q2.48-.66,5-1.07a54.46,54.46,0,0,0,1.25,5.61Zm8.06-.56h-.2a54.44,54.44,0,0,0-5.44.27,52,52,0,0,1-1.17-5.67,52.47,52.47,0,0,1,5.69-.33,54.53,54.53,0,0,0,1.13,5.73ZM154,53a54.55,54.55,0,0,0-6.88-.78,51.87,51.87,0,0,1-1.18-5.76,52.08,52.08,0,0,1,6.74.72A54.4,54.4,0,0,0,154,53Zm8.85,2.36a54.07,54.07,0,0,0-6.16-1.81,52.1,52.1,0,0,1-1.47-5.85,51.61,51.61,0,0,1,5.92,1.72,54.41,54.41,0,0,0,1.71,6Zm5.35-2.83a31.15,31.15,0,0,1-1.08,4.57l-1.24-.55a52,52,0,0,1-2-6.08q2.22,1,4.32,2.1Zm-54.2.29a54.8,54.8,0,0,0-6.17,4.67,31.15,31.15,0,0,1-1.08-4.23,52.41,52.41,0,0,1,6.34-5.16Q113.48,50.5,114,52.82Zm6.54-3.65q-2.24,1-4.36,2.3-.53-2.38-.84-4.83a52,52,0,0,1,4.6-2.53q.21,2.57.63,5.07Zm7.08-2.74q-2.45.76-4.8,1.73-.39-2.53-.54-5.13a51.65,51.65,0,0,1,4.93-1.81q.12,2.64.45,5.21Zm7.44-1.73q-2.58.41-5.08,1.06a52,52,0,0,1-.36-5.22,51.73,51.73,0,0,1,5.15-1c.05,1.76.15,3.51.33,5.21Zm8.11-.68a54.91,54.91,0,0,0-5.72.35q-.26-2.57-.27-5.19a52.48,52.48,0,0,1,5.46-.28H143q0,2.59.21,5.1Zm9.1.67A54.66,54.66,0,0,0,145.6,44q-.25-2.52-.26-5.09a52.1,52.1,0,0,1,6.54.75q.12,2.53.43,5Zm8.29,2a54,54,0,0,0-5.8-1.54q-.34-2.44-.44-4.94A51.68,51.68,0,0,1,160,41.85q.19,2.45.6,4.85Zm7.93-.93c0,.61.06,1.23.06,1.85q0,1.2-.09,2.37a54.21,54.21,0,0,0-5.27-2.35q-.47-2.38-.73-4.82a51.89,51.89,0,0,1,6.08,3Zm-55.74-.36a54.84,54.84,0,0,0-6.4,4.92q-.11-1.34-.12-2.71,0-1.18.09-2.33a52.43,52.43,0,0,1,6.17-4.88q.06,2.54.31,5Zm7-3.92Q117.4,42.62,115.1,44q-.19-2.53-.13-5.11a52,52,0,0,1,5-2.62v.13a48.13,48.13,0,0,0-.13,5.09Zm7.39-2.79a52.19,52.19,0,0,0-5,1.75q0-1.94.12-3.91a8.57,8.57,0,0,1,.11-1.37,51.62,51.62,0,0,1,5.09-1.72c-.09.78-.16,1.57-.21,2.36q0,1.46,0,2.9Zm7.7-1.69q-2.63.38-5.17,1a15.93,15.93,0,0,1,.09-2.07c.07-1.06.18-2.11.31-3.16a51.8,51.8,0,0,1,5.19-.9c-.14,1.11-.26,2.24-.33,3.37C134.88,35.87,134.86,36.45,134.84,37Zm8.18-.56h-.33a54,54,0,0,0-5.42.27,12,12,0,0,1,.07-1.29q.13-1.91.39-3.78,1.93-.14,3.89-.14h1.83c-.16,1.18-.28,2.37-.36,3.58a11.38,11.38,0,0,0-.09,1.39Zm8.88.78a54.49,54.49,0,0,0-6.46-.71,7.37,7.37,0,0,1,.07-1.24q.12-1.82.37-3.6a51.88,51.88,0,0,1,6.28.9c-.05.54-.1,1.09-.14,1.64q-.1,1.54-.12,3Zm7.93,2a54,54,0,0,0-5.52-1.51c0-1.1,0-2.21.11-3.32a8,8,0,0,1,.1-1.26,51.64,51.64,0,0,1,5.33,1.68q-.09,2.19,0,4.42Zm7.32-1a31.16,31.16,0,0,1,1.07,4.61,54.24,54.24,0,0,0-5.93-2.72,42.83,42.83,0,0,1,0-4.34,51.93,51.93,0,0,1,4.87,2.45Zm-54.56-.74a54.78,54.78,0,0,0-5.74,4.17,31.08,31.08,0,0,1,1.8-6,52.4,52.4,0,0,1,4.4-3.17q-.26,1.91-.4,3.86Zm7.62-4a54.29,54.29,0,0,0-5.1,2.51q.2-2.6.64-5.13a51.84,51.84,0,0,1,5.34-2.61q-.56,2.56-.88,5.22Zm7.69-2.63q-2.61.68-5.12,1.6a52.58,52.58,0,0,1,1-5.25A51.65,51.65,0,0,1,129,25.67a49.4,49.4,0,0,0-1.09,5.17Zm7.73-1.42q-2.63.29-5.17.82a52.66,52.66,0,0,1,1.18-5.14q2.52-.47,5.11-.69Q136.08,26.87,135.63,29.43Zm8.19-.28h-2.2q-1.76,0-3.49.11.47-2.52,1.18-5h1.86q1.88,0,3.72.13-.64,2.27-1.07,4.7Zm8.62,1a54.29,54.29,0,0,0-6.19-.88q.44-2.39,1.08-4.7a51.81,51.81,0,0,1,5.94,1.06q-.5,2.25-.83,4.55ZM160,32.3a54,54,0,0,0-5.22-1.59q.31-2.26.81-4.45a51.7,51.7,0,0,1,5,1.72Q160.24,30.11,160,32.3Zm2.78-2.82a31.23,31.23,0,0,1,3,5.31q-1.7-.85-3.46-1.58.22-1.89.49-3.73Zm-6.31-6.59q1.07.83,2.06,1.75-1.17-.39-2.36-.73c.13-.34.23-.68.33-1Zm-7.14-4.16a31,31,0,0,1,5.06,2.68c-.2.62-.38,1.25-.56,1.88A54.16,54.16,0,0,0,148,22.23q.63-1.78,1.34-3.5Zm-7.21-2a30.85,30.85,0,0,1,4.94,1.18q-.83,2-1.49,4.09-2.19-.18-4.43-.18h-1.08a52.16,52.16,0,0,1,2.09-5.11Zm-28.57,12.6q-1.23.73-2.42,1.51a31.39,31.39,0,0,1,3-3.92q-.31,1.17-.55,2.39Zm8.23-4a54.21,54.21,0,0,0-5.42,2.41q.51-2.16,1.2-4.24a31.17,31.17,0,0,1,6.2-4,54.46,54.46,0,0,0-1.95,5.85Zm8-2.33q-2.61.56-5.12,1.36A52.08,52.08,0,0,1,127,18.15a30.84,30.84,0,0,1,5.09-1.34A54.46,54.46,0,0,0,129.74,23Zm7.7-6.65q1.1,0,2.18.08a54.58,54.58,0,0,0-2.12,5.49q-2.56.17-5,.57a52.06,52.06,0,0,1,2.49-6,22.55,22.55,0,0,1,2.45-.13ZM37,149.85q-1.77-.64-3.49-1.39l1.6-.73Zm16.09,3.22a55.77,55.77,0,0,1-7.7-.92q-3.16-3-6-6.19,2.81-1.09,5.7-2a98.79,98.79,0,0,0,8,9.11Zm13.37-.93a55.77,55.77,0,0,1-7.12.9,94.34,94.34,0,0,1-9.78-10.37q3.62-.94,7.34-1.6a98.72,98.72,0,0,0,9.58,11.07Zm11.21-3.42a55.4,55.4,0,0,1-6.21,2.21,94.36,94.36,0,0,1-9.65-10.6q4.14-.5,8.39-.63a99,99,0,0,0,7.49,9Zm10.05-5.56a55.84,55.84,0,0,1-5.93,3.6q-3.25-3.38-6.16-7.07a93.81,93.81,0,0,1,10,.81c.71.9,1.37,1.79,2.12,2.67Zm-55.49,1.08q-1.84.85-3.64,1.77a56,56,0,0,1-8.14-5.58q3.11-2,6.38-3.77,2.55,3.92,5.43,7.58Zm10.06-4q-3,1-5.93,2.18a94.68,94.68,0,0,1-5.64-7.77q3.08-1.48,6.29-2.74,2.47,4.33,5.31,8.36Zm11.84-3.12q-3.78.74-7.46,1.78a94.74,94.74,0,0,1-5.53-8.49q3.76-1.27,7.66-2.23a98.6,98.6,0,0,0,5.37,9Zm13.12-1.67q-4.25.25-8.41.86a94.53,94.53,0,0,1-5.63-9.11q4.2-.82,8.54-1.25a98.68,98.68,0,0,0,5.54,9.53Zm15,.25q-4.53-.42-9.16-.43h-.7a94.3,94.3,0,0,1-5.92-9.67q2.29-.11,4.61-.11,2.67,0,5.31.15a98.65,98.65,0,0,0,5.9,10.09Zm15.84-1.9q-1.73,2-3.64,3.82-3.17-.71-6.41-1.21a94.28,94.28,0,0,1-6.53-10.35,93,93,0,0,1,13.34,2.48q1.57,2.72,3.28,5.29Zm-73.54-.89q-3.83,2.08-7.46,4.49a56.38,56.38,0,0,1-6.64-7.7,93.76,93.76,0,0,1,9.18-6.42,98.2,98.2,0,0,0,5,9.67ZM35,128.08q-3.32,1.32-6.51,2.88a94,94,0,0,1-5-9.83q3.4-1.87,7-3.46A98.43,98.43,0,0,0,35,128.08Zm11.89-3.87q-4,1-7.8,2.35A93.86,93.86,0,0,1,34.41,116q4-1.55,8.09-2.74a98.13,98.13,0,0,0,4.36,10.95Zm12.94-2.39q-4.36.5-8.6,1.39a93.71,93.71,0,0,1-4.48-11.07q4.33-1,8.81-1.66a98.11,98.11,0,0,0,4.24,11.34Zm14.51-.6q-1.59,0-3.19-.05-3.39,0-6.73.23A94,94,0,0,1,59.91,110q4.21-.38,8.52-.38H70a98,98,0,0,0,4.3,11.6Zm17.83,2.22a97.45,97.45,0,0,0-12.93-1.94,94,94,0,0,1-4.62-11.71,93.26,93.26,0,0,1,12.54,1.68,98.27,98.27,0,0,0,5,12Zm13.94-1.58q-1.21,2.46-2.66,4.79-2.78-1-5.64-1.79a93.8,93.8,0,0,1-5.61-12.22,92.74,92.74,0,0,1,11.47,3.82q1.1,2.74,2.4,5.4ZM18,119.26a98.16,98.16,0,0,0-9.89,6.83,56,56,0,0,1-3.59-7,94.09,94.09,0,0,1,10.59-8.29A86,86,0,0,0,18,119.26Zm11-5.73q-3.68,1.63-7.2,3.54-1.64-4.26-2.86-8.71,3.68-2.23,7.58-4.12A85.29,85.29,0,0,0,29,113.53Zm12.26-4.46Q37,110.29,33,111.86a93.28,93.28,0,0,1-2.45-9.46q4.14-1.77,8.47-3.14a97.82,97.82,0,0,0,2.21,9.81Zm13.09-2.83q-4.52.65-8.89,1.71A93.55,93.55,0,0,1,43.21,98a92,92,0,0,1,9-1.92,97.84,97.84,0,0,0,2.06,10.16Zm14.47-1h-.36q-4.94,0-9.76.48a93.25,93.25,0,0,1-2.1-10.18,94.2,94.2,0,0,1,10.22-.6,97.89,97.89,0,0,0,2,10.29Zm16.86,1.52a97.87,97.87,0,0,0-12.36-1.4A93.14,93.14,0,0,1,71.19,95a93.52,93.52,0,0,1,12.09,1.3,97.67,97.67,0,0,0,2.37,10.45ZM101.53,111a96.93,96.93,0,0,0-11.05-3.26,93.56,93.56,0,0,1-2.63-10.5,92.61,92.61,0,0,1,10.63,3.08A97.66,97.66,0,0,0,101.53,111Zm9.6-5.08a55.94,55.94,0,0,1-1.95,8.21l-2.23-1a93.44,93.44,0,0,1-3.56-10.91q4,1.68,7.75,3.7Zm-97.22.45a98.34,98.34,0,0,0-11.07,8.38A55.84,55.84,0,0,1,.9,107.16,94.09,94.09,0,0,1,12.29,97.9Q12.92,102.19,13.91,106.37Zm11.74-6.54q-4,1.89-7.83,4.13a76.65,76.65,0,0,1-1.51-8.68,93.32,93.32,0,0,1,8.26-4.54q.33,4.59,1.08,9.08ZM38.36,94.9Q34,96.26,29.75,98q-.71-4.54-1-9.2a92.72,92.72,0,0,1,8.85-3.25Q37.78,90.28,38.36,94.9Zm13.35-3.1q-4.64.74-9.12,1.91-.55-4.62-.65-9.37a92.76,92.76,0,0,1,9.24-1.89c0,3.14.22,6.26.54,9.34Zm14.56-1.21A98.57,98.57,0,0,0,56,91.21q-.47-4.61-.49-9.32a94.21,94.21,0,0,1,9.8-.51h.51q0,4.62.46,9.2ZM82.6,91.8a98.09,98.09,0,0,0-12-1.15q-.45-4.51-.46-9.14a93.52,93.52,0,0,1,11.73,1.35q.19,4.51.74,8.93Zm14.88,3.59a97,97,0,0,0-10.4-2.77q-.61-4.38-.8-8.87a92.67,92.67,0,0,1,10.09,2.93q.38,4.4,1.12,8.69Zm14.24-1.66c.06,1.1.1,2.2.1,3.32q0,2.15-.16,4.25a97.2,97.2,0,0,0-9.45-4.23q-.85-4.27-1.31-8.66a93.13,93.13,0,0,1,10.83,5.3Zm-100-.65A98.43,98.43,0,0,0,.21,101.89Q0,99.49,0,97q0-2.11.15-4.18a94.12,94.12,0,0,1,11.07-8.75q0,4.55.47,9Zm12.64-7a77.74,77.74,0,0,0-8.53,4.41q-.34-4.53-.24-9.17a93.24,93.24,0,0,1,9-4.71v.24c-.23,3.08-.28,6.15-.21,9.15Zm13.26-5q-4.57,1.35-9,3.13,0-3.48.21-7,.08-1.23.2-2.46a92.68,92.68,0,0,1,9.14-3.08c-.16,1.4-.29,2.81-.38,4.23q-.16,2.54-.2,5.1Zm13.66-3q-4.72.68-9.29,1.81c0-1.23.09-2.47.17-3.72.13-1.91.32-3.79.56-5.67A92.85,92.85,0,0,1,52,68.83c-.26,2-.46,4-.6,6.06-.06,1.05-.11,2.11-.15,3.11Zm14.68-1h-.6q-4.92,0-9.72.48a20.82,20.82,0,0,1,.13-2.32q.23-3.43.7-6.78,3.46-.26,7-.26,1.65,0,3.28.06-.42,3.18-.65,6.43Q66,75.83,65.93,77Zm15.94,1.4A97.86,97.86,0,0,0,70.3,77.2c0-.74.07-1.48.12-2.23q.22-3.27.66-6.47a93.18,93.18,0,0,1,11.28,1.61c-.1,1-.18,2-.25,2.95q-.2,2.67-.23,5.36ZM96.11,82a97,97,0,0,0-9.9-2.72q0-3,.21-6,.08-1.13.18-2.25a92.69,92.69,0,0,1,9.57,3Q96,78,96.11,82Zm13.15-1.82a55.9,55.9,0,0,1,1.92,8.28,97.37,97.37,0,0,0-10.65-4.87q-.2-3.86-.08-7.78a93.24,93.24,0,0,1,8.81,4.35ZM11.33,78.82A98.28,98.28,0,0,0,1,86.31,55.78,55.78,0,0,1,4.26,75.54a93.91,93.91,0,0,1,7.9-5.68c-.31,2.28-.56,4.59-.71,6.92Q11.37,77.8,11.33,78.82ZM25,71.64a97.46,97.46,0,0,0-9.16,4.5q.36-4.67,1.16-9.2a93.07,93.07,0,0,1,9.58-4.68Q25.58,66.87,25,71.64Zm13.81-4.72q-4.69,1.22-9.18,2.88a94.37,94.37,0,0,1,1.86-9.43,92.59,92.59,0,0,1,9.25-2.74Q39.56,62.19,38.81,66.92Zm13.87-2.55q-4.71.52-9.29,1.47a94.47,94.47,0,0,1,2.12-9.23,91.91,91.91,0,0,1,9.17-1.23Q53.48,59.79,52.68,64.37Zm14.7-.51q-2-.08-4-.08-3.16,0-6.26.2.85-4.52,2.12-8.88,1.7-.1,3.38-.1,3.37,0,6.68.24Q68.15,59.5,67.38,63.86Zm15.47,1.86a97.51,97.51,0,0,0-11.1-1.58q.79-4.3,1.95-8.44a93,93,0,0,1,10.66,1.9Q83.43,61.59,82.85,65.72Zm13.63,3.81a97,97,0,0,0-9.38-2.85q.56-4.05,1.45-8a92.85,92.85,0,0,1,8.94,3.08q-.66,3.84-1,7.77Zm5-5.06A56.08,56.08,0,0,1,106.92,74q-3.05-1.52-6.22-2.83.3-3.4.76-6.71ZM90.13,52.64q1.92,1.49,3.7,3.14-2.09-.71-4.23-1.32C89.77,53.86,89.95,53.25,90.13,52.64ZM77.32,45.18A55.68,55.68,0,0,1,86.4,50c-.35,1.12-.69,2.24-1,3.38A97.26,97.26,0,0,0,75,51.47,66.47,66.47,0,0,1,77.32,45.18ZM64.38,41.56a55.39,55.39,0,0,1,8.87,2.11q-1.48,3.6-2.68,7.34-3.93-.32-7.94-.32h-2A93.57,93.57,0,0,1,64.38,41.56ZM13.1,64.16q-2.21,1.3-4.34,2.71a56.29,56.29,0,0,1,5.3-7Q13.53,62,13.1,64.16Zm14.77-7.1a97.28,97.28,0,0,0-9.72,4.33q.92-3.87,2.15-7.61a56,56,0,0,1,11.12-7.2A97.82,97.82,0,0,0,27.87,57.06ZM42.1,52.85q-4.68,1-9.18,2.44A93.45,93.45,0,0,1,37.2,44.14a55.32,55.32,0,0,1,9.14-2.4,97.74,97.74,0,0,0-4.23,11.11ZM55.92,40.92q2,0,3.91.14A97.91,97.91,0,0,0,56,50.91q-4.59.31-9,1a93.45,93.45,0,0,1,4.48-10.84Q53.66,40.92,55.92,40.92Z"/></clipPath><linearGradient id="Безымянный_градиент" y1="79.46" x2="111.84" y2="79.46" gradientTransform="matrix(1, 0, 0, -1, 0, 156)" gradientUnits="userSpaceOnUse"><stop offset="0" stop-color="#89c242"/><stop offset="1" stop-color="#549364"/></linearGradient><clipPath id="clip-path-2"><path class="cls-1" d="M302.21,119.12c0-2.49-.23-6.93-2.18-8.78s-6.6-2.09-9.15-2.09H269.65c-2.83,0-7,.31-9.22,2.27s-2.53,5.91-2.53,8.61V134.7c0,2.56.29,6.65,2.38,8.46s6.64,2.13,9.36,2.13h21.24c2.45,0,7.33-.18,9.25-2s2.07-6.23,2.07-8.6Zm7.4,15.57c0,4.65-.58,11.13-4.31,14.42-3.46,3-10,3.45-14.34,3.45H269.71c-4.79,0-11-.6-14.77-4s-4.44-9.16-4.44-13.89V119.54c0-4.81.73-10.69,4.29-14.27s10-4.31,14.92-4.31H291c4.48,0,10.41.54,13.92,3.66,4,3.54,4.73,9.89,4.73,14.91Zm-130.09-4.84H142.69v-7.28h36.82V120c0-2.77-.28-7.28-2.4-9.35s-6.56-2.36-9.34-2.36H146.53c-2.83,0-6.87.31-9.18,2.19-1.69,1.38-2.15,3.51-2.15,5.6v1.19h-7.4V116c0-11.5,8.52-15.07,18.79-15.07h21.24c4.95,0,11,.76,14.64,4.45s4.43,9.6,4.43,14.55v14.16c0,4.83-.72,10.81-4.38,14.35s-9.84,4.22-14.69,4.22H146.6c-4.65,0-10.57-.59-14.28-3.71-3.4-2.86-4.51-7-4.51-11.36V136.4h7.4v1.19c0,2.24.52,4.49,2.39,5.88,2.22,1.66,6.28,1.9,8.94,1.9h21.24c2.76,0,7.22-.27,9.35-2.3s2.39-6.29,2.39-9Zm20.48-7.5h6.56l30.67-20.9h13l-36,24.5,36.67,26.61H238l-31.3-22.93H200v22.93h-7.4v-51.1H200Zm230.7-19.63H483v4.91H459.28v43.75h-5V107.62H430.7Zm-48.91,48.66V102.72h43v4.91h-38v16.13h37v4.91h-37v17.81h37.94v4.91Zm-25.85.14H334.69q-9.85,0-13.87-3.89t-4-13.5V120q0-9.61,4.09-13.71t13.8-4.1h21.24q17.61,0,17.61,13.88h-5q0-4.42-2.59-6.52-3-2.45-9.92-2.45H334.76q-7.41,0-10.17,2.7T321.83,120v14.16q0,7.22,2.76,9.85t10.17,2.63H356q6.78,0,9.64-2.14t2.86-6.84h5q0,7-4.09,10.45t-13.48,3.41Zm137.93-23.84h29.21q6.15,0,8.18,1.54,2.31,1.75,2.31,7.08,0,5.54-2.27,7.82t-7.72,2.28h-29.7Zm-5-25v48.59h32.7q9.08,0,13.07-3.44t4-11.57q0-7.92-3.81-10.73t-13.17-2.8h-27.8v-20Z"/></clipPath><linearGradient id="Безымянный_градиент_2" x1="127.81" y1="29.17" x2="538.59" y2="29.17" gradientTransform="matrix(1, 0, 0, -1, 0, 156)" gradientUnits="userSpaceOnUse"><stop offset="0" stop-color="#88c242"/><stop offset="1" stop-color="#539365"/></linearGradient></defs><title>logo</title><g id="Слой_2" data-name="Слой 2"><g id="Слой_1-2" data-name="Слой 1"><g class="cls-2"><rect class="cls-3" width="168.59" height="153.07"/></g><g class="cls-4"><rect class="cls-5" x="127.81" y="100.97" width="410.78" height="51.73"/></g></g></g></svg>