<svg xmlns="http://www.w3.org/2000/svg" viewBox="0 0 512 512"><defs><style>.cls-1{fill:#8dc63f;}</style></defs><title>menu-icon</title><g id="Слой_2" data-name="Слой 2"><g id="Слой_1-2" data-name="Слой 1"><path class="cls-1" d="M256,512C114.84,512,0,397.16,0,256S114.84,0,256,0,512,114.84,512,256,397.16,512,256,512Zm0-480C132.48,32,32,132.48,32,256S132.48,480,256,480,480,379.52,480,256,379.52,32,256,32Z"/><path class="cls-1" d="M346.67,181.33H165.33a16,16,0,0,1,0-32H346.67a16,16,0,0,1,0,32Z"/><path class="cls-1" d="M346.67,272H165.33a16,16,0,0,1,0-32H346.67a16,16,0,0,1,0,32Z"/><path class="cls-1" d="M346.67,362.67H165.33a16,16,0,1,1,0-32H346.67a16,16,0,0,1,0,32Z"/></g></g></svg>