<svg xmlns="http://www.w3.org/2000/svg" viewBox="0 0 512 451.78"><defs><style>.cls-1{fill:#fff;}</style></defs><title>message-i</title><g id="Слой_2" data-name="Слой 2"><g id="Capa_1" data-name="Capa 1"><path class="cls-1" d="M444.55,161h-238a7.5,7.5,0,0,0,0,15h238a7.5,7.5,0,0,0,0-15Z"/><path class="cls-1" d="M444.55,218.36h-238a7.5,7.5,0,0,0,0,15h238a7.5,7.5,0,0,0,0-15Z"/><path class="cls-1" d="M444.55,275.7h-238a7.5,7.5,0,0,0,0,15h238a7.5,7.5,0,0,0,0-15Z"/><path class="cls-1" d="M468.38,95.44H182.73a43.67,43.67,0,0,0-43.62,43.62V318.68a43.67,43.67,0,0,0,43.62,43.62H382.94a6.92,6.92,0,0,1,5.46,2.64l64.65,81.85a12.89,12.89,0,0,0,10.16,5,13.27,13.27,0,0,0,4.36-.74,12.9,12.9,0,0,0,8.77-12.33V361.56A43.82,43.82,0,0,0,512,318.68V139.06a43.67,43.67,0,0,0-43.62-43.62ZM497,318.68a28.72,28.72,0,0,1-28.25,28.61,7.5,7.5,0,0,0-7.4,7.5v78.3l-61.17-77.45a21.83,21.83,0,0,0-17.23-8.35H182.73a28.65,28.65,0,0,1-28.62-28.62V139.06a28.65,28.65,0,0,1,28.62-28.62H468.38A28.65,28.65,0,0,1,497,139.06Z"/><path class="cls-1" d="M110.49,219.45a20,20,0,0,0-12.94,7.43L46,292.11V226.74a7.5,7.5,0,0,0-7.4-7.5A24,24,0,0,1,15,195.31V38.94A24,24,0,0,1,38.94,15H287.61a24,24,0,0,1,23.95,23.94V67.88a7.5,7.5,0,0,0,15,0V38.94A39,39,0,0,0,287.61,0H38.94A39,39,0,0,0,0,38.94V195.31a39.13,39.13,0,0,0,31,38.12V299.8a12.19,12.19,0,0,0,8.29,11.65,12.55,12.55,0,0,0,4.12.7,12.18,12.18,0,0,0,9.6-4.71l56.28-71.26a5.06,5.06,0,0,1,3.27-1.88,7.5,7.5,0,1,0-2.11-14.85Z"/></g></g></svg>