<svg xmlns="http://www.w3.org/2000/svg" viewBox="0 0 512.02 490.66"><defs><style>.cls-1{fill:#f7941c;}</style></defs><title>orange-btn-icon</title><g id="Слой_2" data-name="Слой 2"><g id="Layer_1" data-name="Layer 1"><path class="cls-1" d="M336.85,2A10.69,10.69,0,0,0,327.13.62c-38.93,13.78-70.7,48.21-84.93,92.1a10.66,10.66,0,0,0,10.13,14h78.34A10.7,10.7,0,0,0,341.35,96V10.66A10.64,10.64,0,0,0,336.85,2ZM320,85.33H267.86C279.27,60.07,298,39.21,320,27.11Z"/><path class="cls-1" d="M442.71,12.07a10.67,10.67,0,0,0-16,9.24V96a32,32,0,0,1-32,32H245.38a10.67,10.67,0,0,0-10.67,10.67,138.66,138.66,0,0,0,4.24,34L16.38,395.2a55.92,55.92,0,1,0,79.08,79.08L264.32,305.43a95.37,95.37,0,0,1,67.88-28.12h41.15C449.81,277.31,512,215.1,512,138.64,512,87,484.16,36.09,442.71,12.07ZM373.31,256H332.16a116.56,116.56,0,0,0-83,34.37L80.34,459.2a34.23,34.23,0,0,1-24.45,10.13,34.57,34.57,0,0,1-24.45-59L258.39,183.36a10.68,10.68,0,0,0,2.67-10.65,117.42,117.42,0,0,1-4.57-23.38v0H394.65A53.41,53.41,0,0,0,448,96V42.17c25.77,22.87,42.67,60,42.67,96.47A117.46,117.46,0,0,1,373.31,256Z"/><circle class="cls-1" cx="64" cy="426.66" r="21.33"/><path class="cls-1" d="M335.45,171.77a10.69,10.69,0,0,0-14.32,4.78L299.8,219.22a10.67,10.67,0,1,0,19.09,9.54l21.33-42.67A10.69,10.69,0,0,0,335.45,171.77Z"/><path class="cls-1" d="M378.11,171.77a10.69,10.69,0,0,0-14.32,4.78l-21.33,42.67a10.67,10.67,0,1,0,19.09,9.54l21.33-42.67A10.69,10.69,0,0,0,378.11,171.77Z"/><path class="cls-1" d="M420.78,171.77a10.69,10.69,0,0,0-14.32,4.78l-21.33,42.67a10.67,10.67,0,1,0,19.09,9.54l21.33-42.67A10.69,10.69,0,0,0,420.78,171.77Z"/></g></g></svg>