<?xml version="1.0" encoding="utf-8"?>
<!-- Generator: Adobe Illustrator 20.0.0, SVG Export Plug-In . SVG Version: 6.00 Build 0)  -->
<svg version="1.1" id="Слой_1" xmlns="http://www.w3.org/2000/svg" xmlns:xlink="http://www.w3.org/1999/xlink" x="0px" y="0px"
	 viewBox="0 0 127.6 127.6" style="enable-background:new 0 0 127.6 127.6;" xml:space="preserve">
<style type="text/css">
	.st0{fill:#8DC63F;}
</style>
<g id="surface1">
	<path class="st0" d="M106.3,22.5V10.6c0-5.9-4.8-10.6-10.6-10.6h-85C4.8,0,0,4.8,0,10.6v46.8c0,5.4,4.1,10,9.5,10.5l8,20.7
		c2.1,5.5,8.3,8.2,13.7,6.1l49.9-19.2c-3.4,9-2.5,19.1,2.6,27.3l1.2,2v20.7c0,1.2,1,2.1,2.1,2.1h38.3c1.2,0,2.1-1,2.1-2.1V55.3
		c0-7.4-2.9-14.4-8.1-19.6L106.3,22.5z M106.3,35.2l6.5,16.7c1.3,3.3-0.4,7-3.7,8.2l-3.7,1.4c0.6-1.3,0.9-2.8,0.9-4.3V35.2z
		 M4.3,57.4V10.6c0-3.5,2.9-6.4,6.4-6.4h85c3.5,0,6.4,2.9,6.4,6.4v13.5h0l0,0v33.2c0,0.4-0.1,0.7-0.1,1.1L82.4,39
		c-4.4-4.3-11.4-4.3-15.8-0.1c-4.4,4.2-4.7,11.2-0.6,15.8l8.3,9.1H10.6C7.1,63.8,4.3,60.9,4.3,57.4z M31.5,68l-15.1,5.8L14.1,68
		H31.5z M29.7,90.8c-3.3,1.3-7-0.4-8.2-3.7l-3.6-9.3L43.3,68v0h35l2.8,3L29.7,90.8z M123.3,123.3h-34v-17h34V123.3z M123.3,102h-35
		l-0.9-1.5c-5.2-8.3-5.4-18.7-0.5-27.2c0.5-0.8,0.3-1.8-0.3-2.5l-17.4-19c-2.6-2.8-2.5-7.2,0.3-9.9c2.8-2.7,7.2-2.6,9.9,0.1
		l33.9,33.9l3-3l-7.9-7.9l2.2-0.9c5.5-2.1,8.2-8.3,6.1-13.7l-7.2-18.7l6.9,6.9c4.4,4.4,6.9,10.4,6.9,16.6V102z"/>
	<path class="st0" d="M24.2,29.8c3.1,0,5.5-2.5,5.5-5.5V14c0-3.1-2.5-5.5-5.5-5.5H14C11,8.5,8.5,11,8.5,14v10.2
		c0,3.1,2.5,5.5,5.5,5.5H24.2z M12.8,24.2v-3H17V17h-4.3v-3c0-0.7,0.6-1.3,1.3-1.3h10.2c0.7,0,1.3,0.6,1.3,1.3v3h-4.3v4.3h4.3v3
		c0,0.7-0.6,1.3-1.3,1.3H14C13.3,25.5,12.8,24.9,12.8,24.2z"/>
	<path class="st0" d="M10.6,36.1h8.5v4.3h-8.5V36.1z"/>
	<path class="st0" d="M10.6,48.9h8.5v4.3h-8.5V48.9z"/>
	<path class="st0" d="M48.9,48.9h8.5v4.3h-8.5V48.9z"/>
	<path class="st0" d="M23.4,36.1h8.5v4.3h-8.5V36.1z"/>
	<path class="st0" d="M36.1,36.1h8.5v4.3h-8.5V36.1z"/>
	<path class="st0" d="M48.9,36.1h8.5v4.3h-8.5V36.1z"/>
	<path class="st0" d="M89.3,10.6h4.3V17h-4.3V10.6z"/>
	<path class="st0" d="M80.8,10.6H85V17h-4.3V10.6z"/>
	<path class="st0" d="M72.3,10.6h4.3V17h-4.3V10.6z"/>
	<path class="st0" d="M63.8,10.6H68V17h-4.3V10.6z"/>
	<path class="st0" d="M93.5,110.6h4.3v4.3h-4.3V110.6z"/>
</g>
</svg>
