<svg xmlns="http://www.w3.org/2000/svg" viewBox="0 0 399.6 550.8"><defs><style>.cls-1{opacity:0.08;}</style></defs><title>pdf-item</title><g id="Слой_2" data-name="Слой 2"><g id="Capa_1" data-name="Capa 1"><g class="cls-1"><path d="M191.74,414.7a61.83,61.83,0,0,0-13.41,1.17v85.72c2.53.59,6.62.59,10.3.59,26.82.19,44.32-14.58,44.32-45.87C233.14,429.08,217.2,414.7,191.74,414.7Z"/><path d="M77.24,414.31A50.81,50.81,0,0,0,65,415.47v38.69a45.47,45.47,0,0,0,9.9.78c15.76,0,25.47-8,25.47-21.38C100.36,421.51,92,414.31,77.24,414.31Z"/><path d="M399.5,132a10.67,10.67,0,0,0-2.57-7L290.72,3.69s-.06,0-.08-.08a10.8,10.8,0,0,0-2.14-1.8c-.23-.15-.48-.28-.72-.42A11.07,11.07,0,0,0,285.65.5c-.19-.06-.38-.14-.58-.19A10.53,10.53,0,0,0,282.6,0H21.6A21.63,21.63,0,0,0,0,21.6V529.2a21.63,21.63,0,0,0,21.6,21.6H378a21.63,21.63,0,0,0,21.6-21.6v-396A12.05,12.05,0,0,0,399.5,132ZM117.66,463.87c-10.1,9.52-25.07,13.81-42.57,13.81A76,76,0,0,1,65,477.1v46.84H35.64V394.67c9.13-1.55,22-2.72,40-2.72,18.27,0,31.29,3.5,40,10.49,8.36,6.61,14,17.5,14,30.32S125.44,456.49,117.66,463.87Zm125,44.52c-13.79,11.46-34.78,16.91-60.43,16.91a257.32,257.32,0,0,1-33.64-1.94V394.67a265.8,265.8,0,0,1,40-2.72c24.87,0,41,4.47,53.64,14,13.61,10.11,22.16,26.24,22.16,49.37C264.43,480.4,255.3,497.7,242.65,508.39ZM364,417.23H313.62v29.93h47v24.11h-47v52.67H283.89v-131H364ZM21.6,366.75V21.6H271.8V132.12a10.8,10.8,0,0,0,10.8,10.8H378V366.75Z"/><path d="M310.6,232.13c-.63-.06-15.85-1.45-39.21-1.45-7.32,0-14.69.14-22,.42a1164.7,1164.7,0,0,1-104.15-88.68c.37-2.14.62-3.83.74-5.13,2.67-28.17-.3-47.18-8.79-56.51-5.56-6.1-13.72-8.13-22.23-5.81-5.29,1.39-15.07,6.51-18.2,17-3.46,11.54,2.1,25.54,16.71,41.77.23.25,5.19,5.44,14.2,14.24-5.85,27.91-21.18,88.15-28.61,117.07-17.46,9.33-32,20.57-43.28,33.46l-.74.84-.48,1c-1.16,2.44-6.71,15.09-2.54,25.25a17.2,17.2,0,0,0,10.3,9.77l1.3.35a16.87,16.87,0,0,0,3.23.25c9,0,31.25-4.73,43.18-48.7l2.89-11.14c41.64-20.24,93.69-26.77,131.41-28.59,19.41,14.39,38.72,27.61,57.43,39.32l.61.35a45,45,0,0,0,18.72,4.52h0c13.73,0,23.76-8.43,27.5-23.11l.19-1c1-8.39-1.07-16-6.1-21.87C332.11,233.28,312.38,232.2,310.6,232.13ZM67.21,319.74a1,1,0,0,1-.17-.3c-.9-2.16.18-7.39,1.76-11.22a127.15,127.15,0,0,1,24.35-20.84C84,317,70.67,319.6,67.21,319.74Zm58.17-197h0c-14.07-15.66-13.86-23.43-13.1-26,1.24-4.37,6.85-6,6.9-6,2.82-.77,4.54-.62,6.06,1.06,3.45,3.79,6.41,15.23,5.24,36.22C127.16,124.56,125.38,122.69,125.38,122.69Zm-7.27,133.37.24-.93h0c7-27.59,17.21-68,23-93.95l.21.2,0-.12c18.9,17.8,47.88,43.83,82.58,70.91l-.39,0,.57.43C191.68,235.4,152.64,241.84,118.11,256.07Zm214.67,9.05c-2.49,9.15-7.28,10.4-11.67,10.4h0A29.19,29.19,0,0,1,310,272.88c-12.74-8-25.78-16.69-38.93-26h.32c22.55,0,37.57,1.37,38.16,1.41,3.77.14,15.68,1.9,20.82,7.94C332.38,258.6,333.16,261.43,332.79,265.12Z"/></g></g></g></svg>