<svg xmlns="http://www.w3.org/2000/svg" viewBox="0 0 512.08 512.04"><defs><style>.cls-1{fill:#fff;}</style></defs><title>phone-i</title><g id="Слой_2" data-name="Слой 2"><g id="Capa_1" data-name="Capa 1"><path class="cls-1" d="M498.64,395l-19.89-13.25A254.78,254.78,0,0,0,257.05,1.06a8.53,8.53,0,1,0,0,17.07A237.72,237.72,0,0,1,464.5,372.26L395,325.9a30.26,30.26,0,0,0-40.51,6.58L324.29,371.3a12.91,12.91,0,0,1-16.55,3.48L302,371.61c-19-10.38-42.73-23.3-90.45-71s-60.67-71.45-71-90.45l-3.15-5.74a12.92,12.92,0,0,1,3.41-16.61l38.79-30.18a30.27,30.27,0,0,0,6.59-40.51L117,13.44A30.1,30.1,0,0,0,76.46,4.31l-43.34,26A61.14,61.14,0,0,0,5.24,66.52c-15.61,56.87-3.87,155,140.71,299.6,63,63,117.12,100.69,162.9,122A237.32,237.32,0,0,1,19.23,256a8.53,8.53,0,1,0-17.07,0c.13,140.73,114.16,254.8,254.89,255a252,252,0,0,0,77.65-12.24A210.08,210.08,0,0,0,405.41,512a151.18,151.18,0,0,0,40.11-5.24,61.08,61.08,0,0,0,36.18-27.88l26.06-43.32A30.1,30.1,0,0,0,498.64,395Zm-5.55,31.8-26,43.34A44.1,44.1,0,0,1,441,490.36c-24.82,6.83-58.45,7.68-101.65-7.89a8.5,8.5,0,0,0-2.18-.85C289.41,463.88,230.08,426.07,158,354,19.24,215.27,7.29,123.54,21.7,71A44.17,44.17,0,0,1,41.9,45L85.24,19a13.06,13.06,0,0,1,17.6,4L140.39,79.3l31.51,47.27a13.13,13.13,0,0,1-2.85,17.58l-38.8,30.18a29.87,29.87,0,0,0-7.91,38.33l3.08,5.6c10.91,20,24.47,44.88,74,94.38s74.38,63.05,94.37,74l5.61,3.09a29.87,29.87,0,0,0,38.33-7.91L367.88,343a13.14,13.14,0,0,1,17.58-2.85L489.1,409.25A13,13,0,0,1,493.09,426.82Z"/></g></g></svg>