<svg xmlns="http://www.w3.org/2000/svg" viewBox="0 0 112.2 112.2"><defs><style>.cls-1{fill:#cb2027;}.cls-2{fill:#f1f2f2;}</style></defs><title>pintarest</title><g id="Слой_2" data-name="Слой 2"><g id="Capa_1" data-name="Capa 1"><circle class="cls-1" cx="56.1" cy="56.1" r="56.1"/><path class="cls-2" d="M60.63,75.12c-4.24-.33-6-2.43-9.35-4.45-1.83,9.59-4.06,18.78-10.68,23.59-2-14.5,3-25.38,5.34-36.94-4-6.72.48-20.25,8.9-16.91,10.36,4.1-9,25,4,27.6C72.4,70.72,77.93,44.49,69.52,36,57.38,23.63,34.18,35.67,37,53.31c.69,4.31,5.15,5.62,1.78,11.57C31,63.16,28.73,57,29,48.86c.48-13.37,12-22.74,23.59-24C67.25,23.19,81,30.2,82.88,44,85,59.5,76.27,76.33,60.63,75.12Z"/></g></g></svg>