<svg xmlns="http://www.w3.org/2000/svg" viewBox="0 0 512 512"><defs><style>.cls-1{fill:#c7c7c7;}</style></defs><title>popup-close</title><g id="Слой_2" data-name="Слой 2"><g id="Capa_1" data-name="Capa 1"><path class="cls-1" d="M256,0C114.51,0,0,114.5,0,256S114.5,512,256,512,512,397.5,512,256,397.5,0,256,0Zm0,472A216,216,0,1,1,472,256,215.88,215.88,0,0,1,256,472Z"/><path class="cls-1" d="M343.59,315.3,284.28,256l59.3-59.3a20,20,0,1,0-28.28-28.28L256,227.72l-59.3-59.3a20,20,0,1,0-28.28,28.28l59.3,59.3-59.3,59.3a20,20,0,1,0,28.28,28.28l59.3-59.3,59.3,59.3a20,20,0,1,0,28.28-28.28Z"/></g></g></svg>