<svg xmlns="http://www.w3.org/2000/svg" viewBox="0 0 98.83 80.42"><defs><style>.cls-1{opacity:0.08;}</style></defs><title>rev-img</title><g id="Слой_2" data-name="Слой 2"><g id="Capa_1" data-name="Capa 1"><g class="cls-1"><path d="M96.76,32.4C91.51,13.63,78.56,0,66,0a17.3,17.3,0,0,0-3,.26,2,2,0,0,0-1.58,2.51L64,12a2,2,0,0,0,2,1.46h.21c4.67,0,13.2,7,17.55,22.55.17.62.33,1.25.49,1.91a22.73,22.73,0,0,0-16-1.51A22.4,22.4,0,1,0,80.32,79.59c7.85-2.19,13.75-8.71,16.61-18.34C99.52,52.56,99.46,42,96.76,32.4Z"/><path d="M14.09,0a17.28,17.28,0,0,0-3,.26A2,2,0,0,0,9.5,2.77L12.1,12a2,2,0,0,0,2,1.46h.2c4.67,0,13.2,7,17.55,22.55.17.62.34,1.25.49,1.91a22.73,22.73,0,0,0-16-1.51A22.4,22.4,0,1,0,28.44,79.59c7.85-2.19,13.74-8.71,16.61-18.34,2.59-8.69,2.52-19.21-.17-28.85C39.62,13.63,26.68,0,14.09,0Z"/></g></g></g></svg>