<svg xmlns="http://www.w3.org/2000/svg" viewBox="0 0 56.7 59.5"><defs><style>.cls-1{fill:#8dc63f;}</style></defs><title>search-icon_1</title><g id="Слой_2" data-name="Слой 2"><g id="Capa_1" data-name="Capa 1"><path class="cls-1" d="M56.4,57.6,39.9,40.3a23.84,23.84,0,0,0,6.8-16.7A23.54,23.54,0,0,0,23.3,0a23.6,23.6,0,0,0,0,47.2,23.07,23.07,0,0,0,14.9-5.4L54.8,59.2a1.22,1.22,0,0,0,1.6,0A1.21,1.21,0,0,0,56.4,57.6ZM23.3,45a21.4,21.4,0,0,1,0-42.8A21.3,21.3,0,0,1,44.4,23.6,21.23,21.23,0,0,1,23.3,45Z"/></g></g></svg>