<svg xmlns="http://www.w3.org/2000/svg" viewBox="0 0 469.33 512"><defs><style>.cls-1{fill:#b6b6b6;}</style></defs><title>share</title><g id="Слой_2" data-name="Слой 2"><g id="Слой_1-2" data-name="Слой 1"><path class="cls-1" d="M453.33,85.33A69.33,69.33,0,1,1,384,16,69.33,69.33,0,0,1,453.33,85.33Z"/><path class="cls-1" d="M384,170.67a85.33,85.33,0,1,1,85.33-85.34A85.42,85.42,0,0,1,384,170.67ZM384,32a53.33,53.33,0,1,0,53.33,53.33A53.39,53.39,0,0,0,384,32Z"/><path class="cls-1" d="M453.33,426.67A69.33,69.33,0,1,1,384,357.33,69.33,69.33,0,0,1,453.33,426.67Z"/><path class="cls-1" d="M384,512a85.33,85.33,0,1,1,85.33-85.33A85.42,85.42,0,0,1,384,512Zm0-138.67a53.33,53.33,0,1,0,53.33,53.34A53.39,53.39,0,0,0,384,373.33Z"/><path class="cls-1" d="M154.67,256a69.33,69.33,0,1,1-69.34-69.33A69.33,69.33,0,0,1,154.67,256Z"/><path class="cls-1" d="M85.33,341.33A85.33,85.33,0,1,1,170.67,256,85.42,85.42,0,0,1,85.33,341.33Zm0-138.66A53.33,53.33,0,1,0,138.67,256,53.39,53.39,0,0,0,85.33,202.67Z"/><path class="cls-1" d="M135.7,245.76a21.33,21.33,0,0,1-10.58-39.87L323.07,93a21.34,21.34,0,1,1,21.12,37.08L146.24,243A21.19,21.19,0,0,1,135.7,245.76Z"/><path class="cls-1" d="M333.63,421.76a21.2,21.2,0,0,1-10.54-2.8l-198-112.85A21.34,21.34,0,0,1,146.26,269l198,112.85a21.34,21.34,0,0,1-10.58,39.88Z"/></g></g></svg>