<svg xmlns="http://www.w3.org/2000/svg" viewBox="0 0 493.25 507.31"><defs><style>.cls-1{fill:#c2c2c2;}</style></defs><title>swipe</title><g id="Слой_2" data-name="Слой 2"><g id="Capa_1" data-name="Capa 1"><path class="cls-1" d="M294.62,75.31a48,48,0,0,0-96,0v160a80.1,80.1,0,0,0-80,80v85.62l64,80v26.38h32V469.7l-64-80V315.31a48,48,0,0,1,48-48v112h32v-304a16,16,0,0,1,32,0V215.54l52.32,14.27,8.42-30.88-28.8-7.84Z"/><rect class="cls-1" x="349.46" y="211.08" width="32" height="32" transform="translate(50.28 519.98) rotate(-74.76)"/><polygon class="cls-1" points="407.57 255.06 438.62 263.54 438.62 405.98 390.62 469.98 390.62 507.31 422.62 507.31 422.62 480.64 470.62 416.64 470.62 239.09 415.98 224.19 407.57 255.06"/><polygon class="cls-1" points="81.94 22.62 59.31 0 0 59.31 59.31 118.62 81.94 96 61.25 75.31 102.62 75.31 102.62 43.31 61.25 43.31 81.94 22.62"/><rect class="cls-1" x="134.62" y="43.31" width="32" height="32"/><polygon class="cls-1" points="411.31 96 433.94 118.62 493.25 59.31 433.94 0 411.31 22.62 432 43.31 390.62 43.31 390.62 75.31 432 75.31 411.31 96"/><rect class="cls-1" x="326.62" y="43.31" width="32" height="32"/></g></g></svg>