<?xml version="1.0" encoding="utf-8"?>
<!-- Generator: Adobe Illustrator 20.0.0, SVG Export Plug-In . SVG Version: 6.00 Build 0)  -->
<svg version="1.1" id="Capa_1" xmlns="http://www.w3.org/2000/svg" xmlns:xlink="http://www.w3.org/1999/xlink" x="0px" y="0px"
	 viewBox="0 0 87.9 87.9" style="enable-background:new 0 0 87.9 87.9;" xml:space="preserve">
<style type="text/css">
	.st0{fill:#4D76A1;}
	.st1{fill:#FFFFFF;}
</style>
<g>
	<g>
		<circle id="XMLID_11_" class="st0" cx="43.9" cy="43.9" r="43.9"/>
	</g>
	<path class="st1" d="M42.3,63.2h3.4c0,0,1-0.1,1.6-0.7c0.5-0.5,0.5-1.5,0.5-1.5s-0.1-4.6,2.1-5.3c2.1-0.7,4.8,4.5,7.7,6.4
		c2.2,1.5,3.8,1.2,3.8,1.2l7.7-0.1c0,0,4-0.2,2.1-3.4c-0.2-0.3-1.1-2.3-5.7-6.6c-4.8-4.5-4.2-3.8,1.6-11.5c3.5-4.7,5-7.6,4.5-8.8
		c-0.4-1.2-3-0.9-3-0.9L60,32c0,0-0.6-0.1-1.1,0.2c-0.5,0.3-0.8,0.9-0.8,0.9s-1.4,3.7-3.2,6.8c-3.9,6.6-5.4,6.9-6,6.5
		c-1.5-0.9-1.1-3.8-1.1-5.8c0-6.4,1-9-1.9-9.7c-0.9-0.2-1.6-0.4-4-0.4c-3.1,0-5.7,0-7.2,0.7c-1,0.5-1.7,1.6-1.3,1.6
		c0.6,0.1,1.9,0.4,2.6,1.3c0.9,1.2,0.9,3.9,0.9,3.9s0.5,7.5-1.2,8.4c-1.2,0.6-2.8-0.7-6.2-6.6c-1.8-3-3.1-6.4-3.1-6.4
		s-0.3-0.6-0.7-1c-0.6-0.4-1.3-0.5-1.3-0.5l-8.2,0.1c0,0-1.2,0-1.7,0.6c-0.4,0.5,0,1.5,0,1.5S20.7,49.1,28,56.7
		C34.7,63.7,42.3,63.2,42.3,63.2L42.3,63.2z"/>
</g>
</svg>
