<?xml version="1.0" encoding="utf-8"?>
<!-- Generator: Adobe Illustrator 20.0.0, SVG Export Plug-In . SVG Version: 6.00 Build 0)  -->
<svg version="1.1" id="Слой_1" xmlns="http://www.w3.org/2000/svg" xmlns:xlink="http://www.w3.org/1999/xlink" x="0px" y="0px"
	 viewBox="0 0 130.4 130.4" style="enable-background:new 0 0 130.4 130.4;" xml:space="preserve">
<style type="text/css">
	.st0{fill:#8DC63F;}
</style>
<path class="st0" d="M78.2,82.6h-4.3c0,4.8-3.9,8.7-8.7,8.7c-4.8,0-8.7-3.9-8.7-8.7h-4.3c0,7.2,5.8,13,13,13
	C72.4,95.6,78.2,89.8,78.2,82.6z"/>
<path class="st0" d="M128.5,117.4l-6.8-1v-13.8c4.3-2.5,6.8-7.1,6.5-12c-0.3-4.9-3.3-9.2-7.8-11.2c-0.7-0.3-1.4-0.2-2.1,0.2
	c-0.6,0.4-1,1.1-1,1.8v7.8H113v-7.8c0-0.7-0.4-1.4-1-1.8c-0.6-0.4-1.4-0.5-2.1-0.2c-4.5,2-7.5,6.3-7.8,11.2c-0.3,4.9,2.2,9.6,6.5,12
	v11.8L86.3,111l-3.3-7.6c10.5-6.5,16.9-18,17-30.4v-3.7c5.1-1,8.7-5.5,8.7-10.7c-0.1-5.2-3.8-9.6-8.9-10.6c-0.1-1.2-0.3-2.3-0.6-3.5
	l2.1-1.5c0.6-0.4,0.9-1.1,0.9-1.8c0-15.6-12.4-28.6-29-31.8c0.5-0.9,0.7-1.9,0.7-3C73.9,2.9,71,0,67.4,0H63c-3.6,0-6.5,2.9-6.5,6.5
	c0,1,0.3,2,0.7,3c-16.2,3.1-28.4,15.6-28.9,30.7L7.3,57c-0.7,0.6-1,1.5-0.7,2.4c0.3,0.9,1.1,1.5,2.1,1.5h13.3
	c0.9,4.3,4.2,7.6,8.5,8.5v4.2c-0.1,12.3,6.4,23.6,17,29.9l-3.3,7.7l-22.4,3.4V98.1l2.1-8.4c0.1-0.5,0.1-1-0.2-1.5l-4.3-8.7
	c-0.4-0.7-1.1-1.2-1.9-1.2H13c-0.8,0-1.6,0.5-1.9,1.2l-4.3,8.7c-0.2,0.5-0.3,1-0.2,1.5l2.1,8.4v18.3l-6.8,1
	c-1.1,0.2-1.9,1.1-1.9,2.1v8.7c0,1.2,1,2.2,2.2,2.2h126c1.2,0,2.2-1,2.2-2.2v-8.7C130.4,118.5,129.6,117.5,128.5,117.4z M108.7,85.5
	v5.7c0,1.2,1,2.2,2.2,2.2h8.7c1.2,0,2.2-1,2.2-2.2v-5.7c1.8,2.1,2.6,4.9,2,7.6c-0.6,2.7-2.5,5-5,6.1c-2.2,0.9-4.7,0.9-7,0
	c-2.5-1.1-4.4-3.4-5-6.1C106.1,90.4,106.8,87.6,108.7,85.5z M113,104.1c1.4,0.2,2.9,0.2,4.3,0v11.6L113,115V104.1z M104.3,58.7
	c0,2.8-1.8,5.2-4.3,6.1V52.6C102.6,53.5,104.3,55.9,104.3,58.7z M97.7,39.1H82.1c0.2-1.4,0.3-2.9,0.3-4.3c0.2-7.1-1.9-14.2-6-20
	C88.1,18.5,96.7,27.9,97.7,39.1z M52.7,39.1c-0.2-1.4-0.3-2.9-0.3-4.3C52.4,23,58.2,13,65.2,13c7,0,12.8,10,12.8,21.7
	c0,1.5-0.1,2.9-0.3,4.3H52.7z M63,8.7c-1.2,0-2.2-1-2.2-2.2s1-2.2,2.2-2.2h4.3c1.2,0,2.2,1,2.2,2.2s-1,2.2-2.2,2.2H63z M54.1,14.8
	c-4.1,5.8-6.3,12.8-6,20c0,1.5,0.1,2.9,0.3,4.3H32.7C33.7,27.9,42.3,18.5,54.1,14.8z M31.2,43.5h62.1l-17.9,13H14.9L31.2,43.5z
	 M26.5,60.8h3.9v3.9C28.6,64.1,27.1,62.7,26.5,60.8z M34.8,73.5V60.8h41.3c0.5,0,0.9-0.1,1.3-0.4l17.9-13c0.2,1.5,0.3,2.9,0.3,4.4
	V73c0.2,11.8-6.4,22.6-16.9,27.8c-10.5,5.2-23.1,3.9-32.3-3.4C39,91.7,34.7,82.9,34.8,73.5z M65.2,108.3c2.9,0,5.7-0.3,8.5-1
	c1.8-0.4,3.6-1.1,5.4-1.8l2.9,6.9l-16.9,13.1l-16.9-13.1l3-6.9C55.7,107.3,60.4,108.3,65.2,108.3L65.2,108.3z M14.4,82.6H16l3.4,6.8
	l-1.6,6.3h-5.3L11,89.4L14.4,82.6z M13,100h4.3V115l-4.3,0.7V100z M4.3,121.4l40.7-6.1L58.9,126H4.3V121.4z M126,126H71.5l13.8-10.8
	l40.7,6.1V126z"/>
</svg>
