<?xml version="1.0" encoding="utf-8"?>
<!-- Generator: Adobe Illustrator 20.0.0, SVG Export Plug-In . SVG Version: 6.00 Build 0)  -->
<svg version="1.1" id="Layer_1" xmlns="http://www.w3.org/2000/svg" xmlns:xlink="http://www.w3.org/1999/xlink" x="0px" y="0px"
	 viewBox="0 0 130.4 130.4" style="enable-background:new 0 0 130.4 130.4;" xml:space="preserve">
<style type="text/css">
	.st0{fill:#8DC63F;}
</style>
<g>
	<g>
		<path class="st0" d="M83.7,93.9c-1.4-0.8-2.8-1.7-4.2-2.5c0.3-2.8,0.3-5.7,0-8.5c1.4-0.8,2.8-1.6,4.2-2.5c2.3-1.4,3.3-4.3,2.2-6.8
			c0,0,0,0,0,0l-3-7.2c-1-2.5-3.8-3.9-6.4-3.2c-1.5,0.4-3.1,0.8-4.7,1.2c-1.8-2.2-3.8-4.2-6-6c0.4-1.6,0.8-3.2,1.2-4.7
			c0.6-2.6-0.7-5.3-3.2-6.4l-7.2-3c-2.5-1-5.4-0.1-6.8,2.2c-0.8,1.4-1.7,2.8-2.5,4.2c-2.8-0.3-5.7-0.3-8.5,0
			c-0.8-1.4-1.6-2.8-2.5-4.2c-1.4-2.3-4.3-3.3-6.8-2.2l-7.2,3c-2.5,1-3.9,3.8-3.2,6.4c0.4,1.5,0.8,3.1,1.2,4.7c-2.2,1.8-4.2,3.8-6,6
			c-1.6-0.4-3.2-0.8-4.7-1.2c-2.6-0.6-5.3,0.7-6.4,3.2l-3,7.2c-1,2.5-0.1,5.4,2.2,6.8C4,81.3,5.4,82.1,6.8,83
			c-0.3,2.8-0.3,5.7,0,8.5c-1.4,0.8-2.8,1.6-4.2,2.5c-2.3,1.4-3.3,4.3-2.2,6.8l3,7.2c1,2.5,3.8,3.9,6.4,3.2c1.5-0.4,3.1-0.8,4.7-1.2
			c1.8,2.2,3.8,4.2,6,6c-0.4,1.6-0.8,3.2-1.2,4.7c-0.6,2.6,0.7,5.3,3.2,6.4l7.2,3c0.7,0.3,1.4,0.4,2.1,0.4c1.9,0,3.7-1,4.7-2.6
			c0.8-1.4,1.6-2.8,2.5-4.2c2.8,0.3,5.7,0.3,8.5,0c0.8,1.4,1.6,2.8,2.5,4.2c1.4,2.3,4.3,3.3,6.8,2.2l7.2-3c2.5-1,3.9-3.8,3.2-6.4
			c-0.4-1.5-0.8-3.1-1.2-4.7c2.2-1.8,4.2-3.8,6-6c1.6,0.4,3.2,0.8,4.7,1.2c2.6,0.6,5.3-0.7,6.4-3.2l3-7.2C87,98.2,86,95.3,83.7,93.9
			z M77.7,105.4c-1.5-0.4-3-0.8-4.5-1.2c-2.1-0.6-4.4,0.2-5.7,1.9c-1.6,2-3.3,3.8-5.3,5.3c-1.7,1.4-2.5,3.6-1.9,5.7
			c0.4,1.5,0.8,3,1.2,4.5l-6.7,2.8c-0.8-1.3-1.6-2.7-2.4-4c-1.1-1.9-3.2-3-5.4-2.7c-2.5,0.3-5,0.3-7.6,0c-2.2-0.3-4.3,0.8-5.4,2.7
			c-0.8,1.4-1.6,2.7-2.4,4l-6.7-2.8c0.4-1.5,0.8-3,1.2-4.5c0.6-2.1-0.2-4.4-1.9-5.7c-2-1.6-3.8-3.3-5.3-5.3
			c-1.3-1.7-3.6-2.5-5.7-1.9c-1.5,0.4-3,0.8-4.5,1.2l-2.8-6.7c1.3-0.8,2.7-1.6,4-2.4c1.9-1.1,3-3.2,2.7-5.4c-0.3-2.5-0.3-5,0-7.6
			c0.3-2.2-0.8-4.3-2.7-5.4c-1.4-0.8-2.7-1.6-4-2.4L8.7,69c1.5,0.4,3,0.8,4.5,1.2c2.1,0.6,4.4-0.2,5.7-1.9c1.6-2,3.3-3.8,5.3-5.3
			c1.7-1.4,2.5-3.6,1.9-5.7c-0.4-1.5-0.8-3-1.2-4.5l6.7-2.8c0.8,1.3,1.6,2.7,2.4,4c1.1,1.9,3.2,3,5.4,2.7c2.5-0.3,5-0.3,7.6,0
			c2.2,0.3,4.3-0.8,5.4-2.7c0.8-1.4,1.6-2.7,2.4-4l6.7,2.8c-0.4,1.5-0.8,3-1.2,4.5c-0.6,2.1,0.2,4.4,1.9,5.7c2,1.6,3.8,3.3,5.3,5.3
			c1.3,1.7,3.6,2.5,5.7,1.9c1.5-0.4,3-0.8,4.5-1.2l2.8,6.7c-1.3,0.8-2.7,1.6-4,2.4c-1.9,1.1-3,3.2-2.7,5.4c0.3,2.5,0.3,5,0,7.6
			c-0.3,2.2,0.8,4.3,2.7,5.4c1.3,0.8,2.7,1.6,4,2.4L77.7,105.4z"/>
	</g>
</g>
<g>
	<g>
		<path class="st0" d="M61.6,79.6C61.6,79.6,61.6,79.6,61.6,79.6c-4.2-10.1-15.9-15-26-10.8c-10.1,4.2-15,15.9-10.8,26
			c2,4.9,5.9,8.7,10.8,10.8c2.5,1,5,1.5,7.6,1.5c2.6,0,5.2-0.5,7.6-1.5C60.9,101.4,65.8,89.7,61.6,79.6z M48.6,100.2
			c-3.5,1.4-7.3,1.4-10.8,0c-3.5-1.4-6.2-4.1-7.6-7.6c-3-7.2,0.4-15.4,7.6-18.4c1.8-0.7,3.6-1.1,5.4-1.1c5.5,0,10.8,3.3,13,8.7
			C59.1,89,55.7,97.2,48.6,100.2z"/>
	</g>
</g>
<g>
	<g>
		<path class="st0" d="M126.5,25.7c-1-0.2-2-0.3-3.1-0.4c-0.5-1.7-1.2-3.4-2.1-5c0.6-0.8,1.3-1.7,1.9-2.5c1.3-1.8,1.2-4.4-0.5-6
			l-4-4c-1.6-1.6-4.2-1.8-6-0.5c-0.8,0.6-1.7,1.2-2.5,1.9c-1.6-0.9-3.3-1.6-5-2.1c-0.1-1-0.3-2.1-0.4-3.1c-0.3-2.2-2.3-3.9-4.6-3.9
			h-5.7c-2.3,0-4.2,1.7-4.6,3.9c-0.2,1-0.3,2-0.4,3.1c-1.7,0.5-3.4,1.2-5,2.1c-0.8-0.6-1.7-1.3-2.5-1.9c-1.8-1.3-4.4-1.2-6,0.5l-4,4
			c-1.6,1.6-1.8,4.2-0.5,6c0.6,0.8,1.2,1.7,1.9,2.5c-0.9,1.6-1.6,3.3-2.1,5c-1,0.1-2.1,0.3-3.1,0.4c-2.2,0.3-3.9,2.3-3.9,4.6V36
			c0,2.3,1.7,4.2,3.9,4.6c1,0.2,2,0.3,3.1,0.4c0.5,1.7,1.2,3.4,2.1,5c-0.6,0.8-1.3,1.7-1.9,2.5c-1.3,1.8-1.2,4.4,0.5,6l4,4
			c1.6,1.6,4.2,1.8,6,0.5c0.8-0.6,1.7-1.2,2.5-1.9c1.6,0.9,3.3,1.6,5,2.1c0.1,1,0.3,2.1,0.4,3.1c0.3,2.2,2.3,3.9,4.6,3.9h5.7
			c2.3,0,4.2-1.7,4.6-3.9c0.2-1,0.3-2,0.4-3.1c1.7-0.5,3.4-1.2,5-2.1c0.8,0.6,1.7,1.3,2.5,1.9c1.8,1.3,4.4,1.2,6-0.5l4-4
			c1.6-1.6,1.8-4.2,0.5-6c-0.6-0.8-1.2-1.7-1.9-2.5c0.9-1.6,1.6-3.3,2.1-5c1-0.1,2.1-0.3,3.1-0.4c2.2-0.3,3.9-2.3,3.9-4.6v-5.7
			C130.4,28,128.7,26,126.5,25.7z M124.8,35.2c-0.9,0.1-1.8,0.3-2.8,0.4c-1.9,0.2-3.4,1.6-3.9,3.3c-0.5,1.7-1.2,3.4-2,4.9
			c-0.9,1.6-0.8,3.6,0.4,5.1c0.6,0.7,1.1,1.5,1.7,2.2l-2.9,2.9c-0.7-0.6-1.5-1.1-2.2-1.7c-1.5-1.1-3.5-1.3-5.1-0.4
			c-1.6,0.9-3.2,1.6-4.9,2c-1.8,0.5-3.1,2-3.3,3.9c-0.1,0.9-0.3,1.9-0.4,2.8h-4.1c-0.1-0.9-0.3-1.8-0.4-2.8
			c-0.2-1.9-1.6-3.4-3.3-3.9c-1.7-0.5-3.4-1.2-4.9-2c-1.6-0.9-3.6-0.8-5.1,0.4c-0.7,0.6-1.5,1.1-2.2,1.7l-2.9-2.9
			c0.6-0.7,1.1-1.5,1.7-2.2c1.1-1.5,1.3-3.5,0.4-5.1c-0.9-1.5-1.6-3.2-2-4.9c-0.5-1.8-2-3.1-3.9-3.3c-0.9-0.1-1.9-0.3-2.8-0.4v-4.1
			c0.9-0.1,1.8-0.3,2.8-0.4c1.9-0.2,3.4-1.6,3.9-3.3c0.5-1.7,1.2-3.4,2-4.9c0.9-1.6,0.8-3.6-0.4-5.1c-0.6-0.7-1.1-1.5-1.7-2.2
			l2.9-2.9c0.7,0.6,1.5,1.1,2.2,1.7c1.5,1.1,3.5,1.3,5.1,0.4c1.5-0.9,3.2-1.6,4.9-2c1.8-0.5,3.1-2,3.3-3.9c0.1-0.9,0.3-1.9,0.4-2.8
			h4.1c0.1,0.9,0.3,1.8,0.4,2.8c0.2,1.9,1.6,3.4,3.3,3.9c1.7,0.5,3.4,1.2,4.9,2c1.6,0.9,3.6,0.8,5.1-0.4c0.7-0.6,1.5-1.1,2.2-1.7
			l2.9,2.9c-0.6,0.7-1.1,1.5-1.7,2.2c-1.1,1.5-1.3,3.5-0.4,5.1c0.9,1.6,1.6,3.2,2,4.9c0.5,1.8,2,3.1,3.9,3.3
			c0.9,0.1,1.9,0.3,2.8,0.4L124.8,35.2L124.8,35.2z"/>
	</g>
</g>
<g>
	<g>
		<path class="st0" d="M97.3,21.3c-6.5,0-11.8,5.3-11.8,11.8c0,6.5,5.3,11.8,11.8,11.8c6.5,0,11.8-5.3,11.8-11.8
			C109.1,26.6,103.8,21.3,97.3,21.3z M97.3,39.7c-3.6,0-6.6-2.9-6.6-6.6s2.9-6.6,6.6-6.6c3.6,0,6.6,2.9,6.6,6.6
			C103.8,36.7,100.9,39.7,97.3,39.7z"/>
	</g>
</g>
</svg>
